<svg xmlns="http://www.w3.org/2000/svg" viewBox="0 0 1672 941"><path fill="#fff0cf" stroke="#fff0cf" stroke-width=".65" fill-rule="evenodd" d="M576 375.5Q573 378 573 378.5Q573 379 571.5 381Q570 383 570 387.5Q570 392 571 394Q572 396 573.5 397.5Q575 399 575.5 399Q576 399 577 400Q578 401 580 402Q582 403 583.5 403Q585 403 585.5 403.5Q586 404 588 404Q590 404 590.5 404.5Q591 405 598 405Q605 405 605.5 405.5Q606 406 606 407Q606 408 605.5 408.5Q605 409 603.5 409.5Q602 410 601 411Q600 412 597 413.5Q594 415 590 419Q586 423 586 423.5Q586 424 585 425Q584 426 583 428Q582 430 582 431Q582 432 581.5 432.5Q581 433 581 436Q581 439 581.5 439.5Q582 440 582 441Q582 442 582.5 443Q583 444 585.5 446.5Q588 449 589 449.5Q590 450 591 450Q592 450 592.5 450.5Q593 451 599.5 451Q606 451 606.5 450.5Q607 450 609.5 449.5Q612 449 614 447.5Q616 446 619 444.5Q622 443 627.5 438Q633 433 634.5 433Q636 433 638 435Q640 437 643 438.5Q646 440 647.5 440Q649 440 649.5 440.5Q650 441 655 441Q660 441 660.5 440.5Q661 440 663.5 440Q666 440 667 439Q668 438 669.5 438Q671 438 671.5 439Q672 440 673.5 441Q675 442 681 442Q687 442 687.5 441.5Q688 441 689 441Q690 441 692 442Q694 443 699.5 447Q705 451 707.5 452Q710 453 711 454Q712 455 713 455.5Q714 456 715 456Q716 456 718 457.5Q720 459 722 460Q724 461 725 461Q726 461 728.5 462.5Q731 464 733.5 464.5Q736 465 738.5 466.5Q741 468 743 468Q745 468 745.5 468.5Q746 469 747.5 469Q749 469 749.5 469.5Q750 470 751.5 470Q753 470 753.5 470.5Q754 471 755.5 471Q757 471 757.5 471.5Q758 472 760.5 472Q763 472 763.5 472.5Q764 473 767 473Q770 473 771 474Q772 475 772 476Q772 477 771.5 477.5Q771 478 770 478Q769 478 768.5 478.5Q768 479 767 479Q766 479 764 480Q762 481 760.5 481Q759 481 758.5 481.5Q758 482 756.5 482Q755 482 754.5 482.5Q754 483 751.5 483Q749 483 748.5 483.5Q748 484 743.5 484Q739 484 738.5 484.5Q738 485 732.5 485Q727 485 726.5 484.5Q726 484 721 484Q716 484 715.5 483.5Q715 483 713 483Q711 483 710.5 482.5Q710 482 708.5 482Q707 482 706.5 481.5Q706 481 704 481Q702 481 700 480Q698 479 697.5 479.5Q697 480 695.5 480Q694 480 693.5 479.5Q693 479 687.5 479Q682 479 681.5 479.5Q681 480 679 480Q677 480 676.5 480.5Q676 481 674.5 481Q673 481 672.5 481.5Q672 482 671 482Q670 482 669 482.5Q668 483 667 484Q666 485 665 485Q664 485 661 487.5Q658 490 657 490Q656 490 655 491Q654 492 653.5 492Q653 492 650 495.5Q647 499 646 499Q645 499 645.5 499.5Q646 500 646 501Q646 502 645 503.5Q644 505 644 509.5Q644 514 643.5 514.5Q643 515 645.5 515Q648 515 649 514Q650 513 654 511Q658 509 659 509Q660 509 660.5 508.5Q661 508 662 508Q663 508 664 509Q665 510 666.5 510Q668 510 668.5 511Q669 512 672.5 516Q676 520 676 521.5Q676 523 678 525Q680 527 680.5 528.5Q681 530 685 534Q689 538 689.5 538Q690 538 691 539Q692 540 693 540Q694 540 695 540.5Q696 541 697 542Q698 543 698.5 542.5Q699 542 701.5 542.5Q704 543 704.5 542.5Q705 542 707.5 542Q710 542 710.5 541.5Q711 541 712 541Q713 541 714 540.5Q715 540 716 539Q717 538 719 537Q721 536 722.5 534.5Q724 533 724.5 533Q725 533 727 531Q729 529 731.5 529Q734 529 734.5 529.5Q735 530 737 530Q739 530 739.5 530.5Q740 531 743 531Q746 531 746.5 530.5Q747 530 749 530Q751 530 751.5 529.5Q752 529 753 529Q754 529 757 527.5Q760 526 761 525Q762 524 762.5 524Q763 524 764 523Q765 522 767 521Q769 520 769.5 519Q770 518 773 515.5Q776 513 777 513Q778 513 778 511.5Q778 510 780 508Q782 506 783 504Q784 502 785 501Q786 500 787 500Q788 500 787.5 499.5Q787 499 787 498Q787 497 789 495Q791 493 793 493Q795 493 796 494Q797 495 797 497.5Q797 500 796.5 500.5Q796 501 796 505.5Q796 510 793 511.5Q790 513 788.5 514.5Q787 516 786 518Q785 520 785 522.5Q785 525 784.5 525.5Q784 526 784.5 526.5Q785 527 785 530Q785 533 785.5 533.5Q786 534 786 535Q786 536 786.5 537Q787 538 789.5 540.5Q792 543 792 544.5Q792 546 791 546.5Q790 547 792.5 546.5Q795 546 796.5 547.5Q798 549 798 553Q798 557 797.5 557.5Q797 558 797 561.5Q797 565 796.5 565.5Q796 566 796 568Q796 570 795 570.5Q794 571 794 573Q794 575 793 576Q792 577 791.5 577Q791 577 791 578Q791 579 792 578.5Q793 578 794 578Q795 578 795.5 578.5Q796 579 796 596.5Q796 614 795.5 614.5Q795 615 792.5 615.5Q790 616 789 617Q788 618 787.5 618Q787 618 785.5 620Q784 622 783 622Q782 622 780.5 621Q779 620 775.5 619.5Q772 619 771.5 618.5Q771 618 768 618Q765 618 764.5 617.5Q764 617 760.5 617Q757 617 756.5 617.5Q756 618 751 618Q746 618 742 620Q738 622 736.5 622Q735 622 734 623Q733 624 731 625Q729 626 724.5 630.5Q720 635 720 635.5Q720 636 719 637Q718 638 716.5 641Q715 644 715 645Q715 646 714.5 646.5Q714 647 714 649.5Q714 652 713.5 652.5Q713 653 713 658Q713 663 712.5 663.5Q712 664 712 667Q712 670 712.5 670.5Q713 671 714 670.5Q715 670 762.5 670Q810 670 810.5 669.5Q811 669 825.5 669Q840 669 840.5 668Q841 667 841 659.5Q841 652 840.5 651.5Q840 651 840 649.5Q840 648 839 646Q838 644 837.5 644Q837 644 836.5 643Q836 642 833.5 639.5Q831 637 830 636.5Q829 636 829 635Q829 634 830 632.5Q831 631 831 627.5Q831 624 830.5 623Q830 622 828 620Q826 618 825 617.5Q824 617 823 617Q822 617 820 615.5Q818 614 817 614Q816 614 815.5 613.5Q815 613 815 608.5Q815 604 815.5 603.5Q816 603 816 595Q816 587 815.5 586.5Q815 586 815 576.5Q815 567 817 565.5Q819 564 819 562.5Q819 561 819.5 560.5Q820 560 828.5 560Q837 560 837.5 559.5Q838 559 840 559Q842 559 842.5 558.5Q843 558 844.5 558Q846 558 848 557Q850 556 851.5 556Q853 556 854 557Q855 558 857 559Q859 560 863 563.5Q867 567 867.5 567Q868 567 871 570Q874 573 874 574Q874 575 873.5 575.5Q873 576 870.5 576.5Q868 577 868.5 577Q869 577 870 578Q871 579 871.5 578Q872 577 874.5 576.5Q877 576 878 577Q879 578 879 578.5Q879 579 881 581Q883 583 883 583.5Q883 584 884.5 585.5Q886 587 886 587.5Q886 588 888 590.5Q890 593 890 594Q890 595 889.5 595.5Q889 596 886.5 596Q884 596 883.5 595Q883 594 882.5 594Q882 594 882 596Q882 598 882.5 597.5Q883 597 887 597Q891 597 892.5 598.5Q894 600 894.5 601Q895 602 895 603Q895 604 897.5 609Q900 614 900 617Q900 620 899 621Q898 622 897.5 622Q897 622 895 624Q893 626 892.5 627Q892 628 892 632.5Q892 637 890.5 638Q889 639 886 639Q883 639 882.5 639.5Q882 640 883 640Q884 640 884.5 640.5Q885 641 885 642.5Q885 644 886 644.5Q887 645 887 646Q887 647 885 650.5Q883 654 883 655.5Q883 657 882.5 657.5Q882 658 882 660.5Q882 663 881.5 663.5Q881 664 879.5 664Q878 664 877.5 663.5Q877 663 877 662Q877 661 876.5 661Q876 661 876 661.5Q876 662 875 662.5Q874 663 874 663.5Q874 664 875 664.5Q876 665 876 666Q876 667 874.5 668Q873 669 918.5 669Q964 669 965 670Q966 671 966 671.5Q966 672 966.5 672Q967 672 967.5 671Q968 670 969.5 670Q971 670 971.5 670.5Q972 671 974 671Q976 671 976.5 671.5Q977 672 980.5 672Q984 672 983 671.5Q982 671 982 670Q982 669 982.5 668.5Q983 668 984.5 668Q986 668 986.5 668.5Q987 669 987 670Q987 671 987.5 670Q988 669 990.5 669Q993 669 994.5 670Q996 671 997 671Q998 671 998 664Q998 657 997.5 656.5Q997 656 997 654.5Q997 653 996 651Q995 649 994 648Q993 647 993 646.5Q993 646 989 641.5Q985 637 984.5 636Q984 635 983.5 635Q983 635 982 634Q981 633 979.5 633Q978 633 977.5 632.5Q977 632 976 632Q975 632 972 630.5Q969 629 965.5 628.5Q962 628 961.5 627.5Q961 627 961 626Q961 625 962.5 623.5Q964 622 963.5 621.5Q963 621 962 622Q961 623 959.5 623Q958 623 957 622.5Q956 622 955.5 622.5Q955 623 956 623.5Q957 624 957 625Q957 626 956 627Q955 628 951 628Q947 628 946.5 628.5Q946 629 943.5 629Q941 629 940.5 628.5Q940 628 940.5 625.5Q941 623 940.5 622.5Q940 622 940 621Q940 620 939.5 619Q939 618 938 617Q937 616 934.5 615.5Q932 615 931.5 614Q931 613 930 613Q929 613 928.5 613.5Q928 614 926.5 614Q925 614 923.5 613Q922 612 921.5 608.5Q921 605 919.5 602.5Q918 600 918 599Q918 598 916 595.5Q914 593 913.5 591.5Q913 590 912 589Q911 588 911 587.5Q911 587 910 586Q909 585 908 583Q907 581 896.5 570Q886 559 885.5 559Q885 559 883 557Q881 555 880.5 555Q880 555 878.5 553.5Q877 552 876.5 552Q876 552 874 550Q872 548 871 547.5Q870 547 869 547Q868 547 867 546Q866 545 866 544Q866 543 867.5 541Q869 539 869 537.5Q869 536 870 535Q871 534 871 528.5Q871 523 870.5 522.5Q870 522 870 520Q870 518 865 513.5Q860 509 860 507.5Q860 506 860.5 505.5Q861 505 862.5 505Q864 505 865.5 506.5Q867 508 867.5 508Q868 508 871 510.5Q874 513 875.5 513.5Q877 514 878 515Q879 516 880 516Q881 516 884.5 518Q888 520 889 520Q890 520 890.5 520.5Q891 521 893.5 521.5Q896 522 897.5 523Q899 524 900.5 524Q902 524 902.5 524.5Q903 525 904 525Q905 525 905.5 525.5Q906 526 908 526Q910 526 910.5 526.5Q911 527 913 527Q915 527 915.5 527.5Q916 528 922 528Q928 528 928.5 528.5Q929 529 932.5 529Q936 529 937 530Q938 531 938.5 532.5Q939 534 941.5 536.5Q944 539 946 540Q948 541 951 541Q954 541 954.5 540.5Q955 540 956.5 540Q958 540 959.5 541Q961 542 962 542Q963 542 963.5 542.5Q964 543 965.5 543Q967 543 969 545.5Q971 548 971.5 548Q972 548 973 549Q974 550 975 550Q976 550 978 551Q980 552 982.5 552Q985 552 985.5 551.5Q986 551 987.5 551Q989 551 991 550Q993 549 994 548Q995 547 995 546.5Q995 546 996 545Q997 544 997 541Q997 538 998 537Q999 536 1000 536Q1001 536 1002.5 534.5Q1004 533 1005 531Q1006 529 1006 525Q1006 521 1006.5 520.5Q1007 520 1015.5 520Q1024 520 1024.5 519.5Q1025 519 1026.5 519Q1028 519 1028.5 518.5Q1029 518 1030 518Q1031 518 1032 517.5Q1033 517 1035 515Q1037 513 1037.5 512Q1038 511 1038 507.5Q1038 504 1037 502Q1036 500 1033.5 498Q1031 496 1029 495Q1027 494 1026 494Q1025 494 1024.5 493.5Q1024 493 1022.5 493Q1021 493 1020.5 492.5Q1020 492 1011.5 492Q1003 492 1002.5 492.5Q1002 493 999 493Q996 493 995.5 492.5Q995 492 995 490.5Q995 489 997.5 486Q1000 483 1000.5 482Q1001 481 1001 480Q1001 479 1001.5 478.5Q1002 478 1002 473Q1002 468 1001 467.5Q1000 467 999.5 465.5Q999 464 998 463Q997 462 995 461Q993 460 992 460Q991 460 990.5 459.5Q990 459 988 459Q986 459 985.5 459.5Q985 460 982.5 460.5Q980 461 977 464Q974 467 971.5 472Q969 477 969 478Q969 479 967 483Q965 487 963 489Q961 491 960 491Q959 491 957 493Q955 495 950.5 495Q946 495 944 496Q942 497 940 499.5Q938 502 937.5 503Q937 504 937 505Q937 506 935 508.5Q933 511 931 511Q929 511 928.5 510.5Q928 510 924.5 510Q921 510 920.5 509.5Q920 509 916.5 509Q913 509 912.5 508.5Q912 508 909.5 508Q907 508 905 507Q903 506 901.5 506Q900 506 899.5 505.5Q899 505 898 505Q897 505 895 504Q893 503 891.5 503Q890 503 889.5 502.5Q889 502 888 502Q887 502 881.5 499Q876 496 876 495Q876 494 876.5 493.5Q877 493 879.5 493Q882 493 882.5 493.5Q883 494 893.5 494Q904 494 904.5 493.5Q905 493 906.5 493Q908 493 908.5 492.5Q909 492 910 492Q911 492 912.5 491Q914 490 915 490Q916 490 919 488.5Q922 487 923 486Q924 485 925.5 484.5Q927 484 928 483Q929 482 931 481Q933 480 933 479.5Q933 479 936.5 475.5Q940 472 940 471.5Q940 471 942 468.5Q944 466 946 462Q948 458 948 457Q948 456 949 454.5Q950 453 950 451.5Q950 450 951 448Q952 446 952 443Q952 440 952.5 439.5Q953 439 953 435.5Q953 432 952.5 431.5Q952 431 952 429.5Q952 428 952.5 427.5Q953 427 962.5 427Q972 427 972.5 426.5Q973 426 976.5 426Q980 426 980.5 425.5Q981 425 983 425Q985 425 986.5 426Q988 427 989 427Q990 427 990 425.5Q990 424 990.5 423.5Q991 423 992 423Q993 423 993.5 424Q994 425 996.5 423Q999 421 1001 420Q1003 419 1004 419Q1005 419 1006.5 417.5Q1008 416 1010 415Q1012 414 1013.5 412.5Q1015 411 1016 410.5Q1017 410 1018.5 410Q1020 410 1020.5 409.5Q1021 409 1021 407.5Q1021 406 1024.5 402Q1028 398 1032 390Q1036 382 1036 381Q1036 380 1036.5 379.5Q1037 379 1037 377.5Q1037 376 1037.5 375.5Q1038 375 1038 373.5Q1038 372 1038.5 371.5Q1039 371 1039 367Q1039 363 1039.5 362.5Q1040 362 1040 358.5Q1040 355 1039.5 354.5Q1039 354 1039 350.5Q1039 347 1038.5 346.5Q1038 346 1038 344Q1038 342 1037.5 341.5Q1037 341 1037 340Q1037 339 1036.5 338.5Q1036 338 1035.5 335.5Q1035 333 1033 329Q1031 325 1030 324Q1029 323 1028.5 321.5Q1028 320 1026.5 318.5Q1025 317 1025 316.5Q1025 316 1020.5 311.5Q1016 307 1015.5 307Q1015 307 1013.5 305.5Q1012 304 1012 303Q1012 302 1011 301.5Q1010 301 1008 301Q1006 301 1004.5 300Q1003 299 1002 299Q1001 299 999.5 298Q998 297 997 297Q996 297 995.5 296.5Q995 296 993.5 296Q992 296 991.5 295.5Q991 295 988 295Q985 295 984.5 294.5Q984 294 979.5 294Q975 294 974.5 294.5Q974 295 971 295Q968 295 967.5 295.5Q967 296 965.5 296Q964 296 963.5 295.5Q963 295 960 296.5Q957 298 955.5 298Q954 298 950 300.5Q946 303 943 303Q940 303 934 306Q928 309 927 310Q926 311 925.5 311Q925 311 919 316.5Q913 322 913 322.5Q913 323 910.5 326Q908 329 906 333Q904 337 904 338Q904 339 903 341Q902 343 902 345Q902 347 901.5 347.5Q901 348 899.5 348Q898 348 895 345.5Q892 343 892 342Q892 341 896 337Q900 333 900 332.5Q900 332 901.5 330.5Q903 329 906.5 322Q910 315 910 313.5Q910 312 910.5 311.5Q911 311 911 309Q911 307 911.5 306.5Q912 306 912 297.5Q912 289 911.5 288.5Q911 288 911 287Q911 286 911.5 285.5Q912 285 911 284Q910 283 909.5 280.5Q909 278 906.5 273Q904 268 903 267Q902 266 902 265.5Q902 265 899.5 262.5Q897 260 897 259.5Q897 259 891.5 254.5Q886 250 881 247.5Q876 245 875 245Q874 245 872 244Q870 243 867.5 243Q865 243 864.5 242.5Q864 242 855.5 242Q847 242 846.5 242.5Q846 243 844 243Q842 243 841.5 243.5Q841 244 839.5 244Q838 244 835 245.5Q832 247 831 247Q830 247 828.5 248Q827 249 826 249Q825 249 818 252.5Q811 256 810 257Q809 258 807 259Q805 260 803.5 261.5Q802 263 801.5 263Q801 263 796.5 267.5Q792 272 791 274Q790 276 789 276.5Q788 277 788 278Q788 279 787 280Q786 281 785 283Q784 285 784 286Q784 287 783.5 287.5Q783 288 782.5 290.5Q782 293 781 294Q780 295 780.5 295.5Q781 296 781 298Q781 300 780.5 300.5Q780 301 780 306.5Q780 312 780.5 312.5Q781 313 781 315Q781 317 781.5 317.5Q782 318 782.5 321.5Q783 325 784 326.5Q785 328 785 329Q785 330 786 331Q787 332 787 333Q787 334 786.5 334.5Q786 335 779 335Q772 335 771.5 335.5Q771 336 769.5 336Q768 336 767.5 336.5Q767 337 766 337Q765 337 761 339Q757 341 755 343Q753 345 751.5 345Q750 345 750 345.5Q750 346 748.5 347.5Q747 349 747 350Q747 351 746 352Q745 353 744.5 353Q744 353 744 354.5Q744 356 743.5 356.5Q743 357 743 358Q743 359 741.5 361Q740 363 740 372Q740 381 740.5 381.5Q741 382 741 384Q741 386 742 387Q743 388 744 390Q745 392 745 393Q745 394 744 394.5Q743 395 740 398Q737 401 737 401.5Q737 402 736 403Q735 404 733.5 407Q732 410 732 411.5Q732 413 731.5 413.5Q731 414 731 421Q731 428 731.5 428.5Q732 429 732 430.5Q732 432 732.5 432.5Q733 433 733 434Q733 435 734 437Q735 439 736 440Q737 441 737 442Q737 443 736.5 443.5Q736 444 734.5 444Q733 444 731 443Q729 442 728 441Q727 440 725.5 439.5Q724 439 720 436Q716 433 712.5 431.5Q709 430 708 429Q707 428 705 427Q703 426 703 419.5Q703 413 702.5 412.5Q702 412 702 411Q702 410 701 408Q700 406 696 404Q692 402 692 398.5Q692 395 691.5 394.5Q691 394 690.5 391.5Q690 389 688.5 386Q687 383 684 379.5Q681 376 680.5 376Q680 376 677.5 374Q675 372 675 370.5Q675 369 674.5 368.5Q674 368 674 366Q674 364 673.5 363.5Q673 363 673 361.5Q673 360 672.5 359.5Q672 359 671.5 356.5Q671 354 668.5 349Q666 344 664.5 342.5Q663 341 662.5 340Q662 339 661.5 339Q661 339 659.5 337.5Q658 336 656 335Q654 334 652.5 334Q651 334 650.5 333.5Q650 333 647.5 333Q645 333 644.5 333.5Q644 334 643 334Q642 334 640 335Q638 336 635.5 338.5Q633 341 632 343Q631 345 631 350.5Q631 356 631.5 356.5Q632 357 632 358Q632 359 633 360Q634 361 634.5 362.5Q635 364 638.5 367.5Q642 371 642 372Q642 373 641.5 373.5Q641 374 640 374Q639 374 637 373Q635 372 633.5 372Q632 372 630 371Q628 370 626.5 370Q625 370 624.5 369.5Q624 369 621.5 369Q619 369 618.5 368.5Q618 368 615 368Q612 368 611.5 367.5Q611 367 604.5 367Q598 367 597.5 367.5Q597 368 594.5 368Q592 368 591.5 368.5Q591 369 589.5 369Q588 369 587.5 369.5Q587 370 586 370Q585 370 582 371.5Q579 373 576 375.5Z"/><path fill="#fff0cf" stroke="#fff0cf" stroke-width=".65" fill-rule="evenodd" d="M885.5 657.5Q885 658 885 662Q885 666 885.5 666.5Q886 667 887 666.5Q888 666 933.5 666Q979 666 979.5 666.5Q980 667 979.5 668.5Q979 670 980.5 670Q982 670 982.5 669Q983 668 984.5 668Q986 668 986.5 669Q987 670 987.5 669.5Q988 669 990 669Q992 669 993.5 668Q995 667 995 664Q995 661 994.5 660.5Q994 660 994 658Q994 656 991 650.5Q988 645 983 640.5Q978 636 975 634.5Q972 633 971 633Q970 633 969.5 632.5Q969 632 967.5 632Q966 632 965.5 631.5Q965 631 955.5 631Q946 631 945.5 631.5Q945 632 943.5 632Q942 632 941.5 632.5Q941 633 938.5 633.5Q936 634 933 635.5Q930 637 924.5 641Q919 645 918.5 644Q918 643 920 641Q922 639 922.5 639Q923 639 924.5 637.5Q926 636 928 635Q930 634 930 633.5Q930 633 928.5 633Q927 633 926.5 632Q926 631 926.5 630.5Q927 630 931 630Q935 630 936.5 628Q938 626 938 624Q938 622 937.5 621Q937 620 936 619Q935 618 934 618Q933 618 932.5 617.5Q932 617 930.5 617Q929 617 928.5 616.5Q928 616 921.5 616.5Q915 617 914.5 617.5Q914 618 912.5 618Q911 618 910.5 618.5Q910 619 909 619Q908 619 904 621Q900 623 898 625Q896 627 895.5 628Q895 629 895 632Q895 635 896 636Q897 637 898.5 637Q900 637 900.5 638Q901 639 900 640Q899 641 897 642Q895 643 892 646Q889 649 887.5 652Q886 655 886 656Q886 657 885.5 657.5ZM838 659Q838 656 837.5 655.5Q837 655 837 653.5Q837 652 836.5 651.5Q836 651 836 650Q836 649 835 647Q834 645 830 641Q826 637 825.5 637Q825 637 824 636Q823 635 823 634.5Q823 634 823.5 633.5Q824 633 825 633Q826 633 827 631.5Q828 630 828 627.5Q828 625 827.5 624Q827 623 824.5 621Q822 619 821 619Q820 619 818 618Q816 617 814 617Q812 617 811.5 616.5Q811 616 805 616Q799 616 798.5 616.5Q798 617 796.5 617Q795 617 794.5 617.5Q794 618 793 618Q792 618 790 620Q788 622 788 622.5Q788 623 791 625.5Q794 628 796.5 628Q799 628 800 629Q801 630 800 630.5Q799 631 799 631.5Q799 632 802 635Q805 638 805.5 639Q806 640 805.5 641Q805 642 800.5 637.5Q796 633 795.5 633Q795 633 793.5 631.5Q792 630 785 626.5Q778 623 777 623Q776 623 775.5 622.5Q775 622 773.5 622Q772 622 771.5 621.5Q771 621 768.5 621Q766 621 765.5 620.5Q765 620 760 620Q755 620 754.5 620.5Q754 621 752 621Q750 621 749.5 621.5Q749 622 747.5 622Q746 622 739 625.5Q732 629 728 633Q724 637 724 637.5Q724 638 721.5 641.5Q719 645 719 646Q719 647 718.5 647.5Q718 648 718 649Q718 650 717 652Q716 654 716 656.5Q716 659 716.5 659.5Q717 660 717 661Q717 662 716 663Q715 664 715 665.5Q715 667 715.5 667.5Q716 668 722.5 668Q729 668 729.5 667.5Q730 667 783 667Q836 667 836 665.5Q836 664 837 663Q838 662 838 659ZM748.5 659Q748 658 748.5 657.5Q749 657 755 657Q761 657 761.5 658Q762 659 761.5 659.5Q761 660 755 660Q749 660 748.5 659ZM887.5 564Q887 564 894 571Q901 578 901.5 579Q902 580 902 579.5Q902 579 900.5 577.5Q899 576 899 575.5Q899 575 893.5 569.5Q888 564 887.5 564ZM817 525Q816 525 816 526Q816 527 817 527.5Q818 528 819 529.5Q820 531 820.5 531Q821 531 821 530Q821 529 820.5 528Q820 527 819 526Q818 525 817 525ZM715 526Q715 525 714 525.5Q713 526 711.5 528Q710 530 710.5 531Q711 532 711 533Q711 534 711.5 534Q712 534 712 531Q712 528 712.5 527.5Q713 527 714 527Q715 527 715 526ZM800.5 494Q800 494 800 497Q800 500 799.5 500.5Q799 501 799 505.5Q799 510 797.5 511.5Q796 513 796 513.5Q796 514 795 515Q794 516 793 518Q792 520 792 521.5Q792 523 791.5 523.5Q791 524 791 527.5Q791 531 791.5 531.5Q792 532 792 533.5Q792 535 793.5 538Q795 541 796 542Q797 543 797 543.5Q797 544 800.5 547Q804 550 808 552Q812 554 813 554Q814 554 816 555Q818 556 820 556Q822 556 822.5 556.5Q823 557 830.5 557Q838 557 838.5 556.5Q839 556 842.5 555.5Q846 555 846 552Q846 549 846.5 548Q847 547 850.5 544Q854 541 856.5 541Q859 541 860 542Q861 543 861.5 543Q862 543 863 542Q864 541 865.5 538Q867 535 867 533Q867 531 867.5 530.5Q868 530 868 527.5Q868 525 867.5 524.5Q867 524 867 522.5Q867 521 866 519Q865 517 861 513.5Q857 510 857 508Q857 506 856.5 505.5Q856 505 856 502.5Q856 500 855 498.5Q854 497 853 497.5Q852 498 850.5 497Q849 496 846.5 496Q844 496 843 497Q842 498 840 499Q838 500 835.5 500.5Q833 501 831.5 502Q830 503 829.5 502.5Q829 502 828 502.5Q827 503 826 502.5Q825 502 824 502Q823 502 822.5 502.5Q822 503 820.5 502Q819 501 818.5 501.5Q818 502 817 501Q816 500 815 500Q814 500 813.5 499Q813 498 812 498Q811 498 810.5 498.5Q810 499 809.5 498.5Q809 498 807.5 498Q806 498 805.5 498.5Q805 499 804.5 498Q804 497 802.5 495.5Q801 494 800.5 494ZM807 519.5Q808 519 809 519Q810 519 810.5 518.5Q811 518 814.5 518Q818 518 820 519Q822 520 825 523.5Q828 527 828 528.5Q828 530 828.5 530.5Q829 531 829 533.5Q829 536 828.5 536.5Q828 537 827.5 539.5Q827 542 826 542.5Q825 543 822.5 545.5Q820 548 819.5 547.5Q819 547 818.5 547.5Q818 548 814.5 548Q811 548 810.5 547.5Q810 547 809 547Q808 547 807 546Q806 545 805.5 545Q805 545 803 542.5Q801 540 801 539Q801 538 800 536Q799 534 799 533Q799 532 799.5 531.5Q800 531 800 529.5Q800 528 801 526Q802 524 804 522Q806 520 807 519.5ZM990.5 462.5Q990 462 988 462Q986 462 985.5 462.5Q985 463 984 463Q983 463 980 465.5Q977 468 971.5 479Q966 490 965 491Q964 492 961.5 493Q959 494 956 497.5Q953 501 952 499.5Q951 498 948.5 498Q946 498 945 499Q944 500 943.5 500Q943 500 942 501Q941 502 940 504Q939 506 939 507Q939 508 938.5 508.5Q938 509 938 511Q938 513 937.5 513.5Q937 514 937 517.5Q937 521 937.5 521.5Q938 522 938 524Q938 526 938.5 526.5Q939 527 939 528Q939 529 939.5 530Q940 531 943 534Q946 537 947 537.5Q948 538 950.5 538Q953 538 953.5 537Q954 536 953 535Q952 534 953 533.5Q954 533 957 536Q960 539 961 539.5Q962 540 963 540Q964 540 964.5 540.5Q965 541 966.5 541Q968 541 968 540.5Q968 540 967 539Q966 538 966 535.5Q966 533 966.5 532Q967 531 968 530Q969 529 969.5 529Q970 529 970.5 529.5Q971 530 970 531.5Q969 533 969 534.5Q969 536 969.5 537Q970 538 971.5 539.5Q973 541 974 541.5Q975 542 976 542Q977 542 977.5 542.5Q978 543 977.5 544Q977 545 976 544.5Q975 544 974.5 544.5Q974 545 973 544Q972 543 971.5 543.5Q971 544 972.5 545.5Q974 547 975 547.5Q976 548 977.5 548Q979 548 979.5 548.5Q980 549 983 549Q986 549 986.5 548.5Q987 548 988 548Q989 548 990 547.5Q991 547 992 546Q993 545 994 543Q995 541 995 539.5Q995 538 994.5 537.5Q994 537 995.5 535.5Q997 534 999 533Q1001 532 1002 530Q1003 528 1003 525Q1003 522 1001.5 519.5Q1000 517 1000 516Q1000 515 999.5 514.5Q999 514 999.5 513.5Q1000 513 1000.5 513Q1001 513 1002.5 514.5Q1004 516 1005.5 516Q1007 516 1007.5 516.5Q1008 517 1016 517Q1024 517 1024.5 516.5Q1025 516 1026.5 516Q1028 516 1029 515.5Q1030 515 1032.5 512.5Q1035 510 1035 507.5Q1035 505 1034.5 504Q1034 503 1032 501Q1030 499 1027 497.5Q1024 496 1022.5 496Q1021 496 1020.5 495.5Q1020 495 1010 495Q1000 495 999.5 495.5Q999 496 996.5 496Q994 496 993.5 496.5Q993 497 989.5 497.5Q986 498 985 499Q984 500 983 499.5Q982 499 982 498.5Q982 498 987.5 493Q993 488 993 487.5Q993 487 994.5 485.5Q996 484 997 482Q998 480 998 479Q998 478 998.5 477.5Q999 477 999 473.5Q999 470 998.5 469Q998 468 995.5 465.5Q993 463 992 463Q991 463 990.5 462.5ZM998.5 513.5Q998 513 998.5 512.5Q999 512 999.5 512.5Q1000 513 999.5 513.5Q999 514 998.5 513.5ZM951.5 501.5Q951 501 951.5 500.5Q952 500 952.5 500.5Q953 501 952.5 501.5Q952 502 951.5 501.5ZM825 445Q824 445 822 448.5Q820 452 820 454Q820 456 821.5 457.5Q823 459 825 460Q827 461 829 461Q831 461 832.5 459.5Q834 458 835.5 455Q837 452 836 451Q835 450 831.5 448.5Q828 447 827 446Q826 445 825 445ZM907.5 438.5Q910 436 909 437Q908 438 904 440Q900 442 902.5 441.5Q905 441 907.5 438.5ZM858.5 435.5Q857 435 860 438Q863 441 862.5 441.5Q862 442 859.5 441.5Q857 441 858 441Q859 441 861 442Q863 443 864.5 443Q866 443 866 442.5Q866 442 867 441.5Q868 441 867 440.5Q866 440 866.5 440.5Q867 441 866.5 441.5Q866 442 865 442Q864 442 862.5 440.5Q861 439 862 438.5Q863 438 863.5 438.5Q864 439 862 437.5Q860 436 858.5 435.5ZM850.5 409Q849 411 849 412Q849 413 851.5 418Q854 423 855.5 424.5Q857 426 857 426.5Q857 427 858.5 428.5Q860 430 863 431.5Q866 433 872 433Q878 433 878.5 432.5Q879 432 880.5 432Q882 432 885 430.5Q888 429 890.5 427Q893 425 891 425Q889 425 888.5 425.5Q888 426 885.5 426Q883 426 882.5 425.5Q882 425 880 425Q878 425 877.5 424.5Q877 424 876 424Q875 424 873 422.5Q871 421 870.5 421Q870 421 867.5 418.5Q865 416 865 415.5Q865 415 864 414Q863 413 862 411Q861 409 860.5 404.5Q860 400 858.5 400.5Q857 401 854.5 403.5Q852 406 852 406.5Q852 407 850.5 409ZM821.5 390.5Q821 391 821 392Q821 393 821.5 393.5Q822 394 824 393Q826 392 825.5 391Q825 390 823.5 390Q822 390 821.5 390.5ZM896 371Q893 371 890.5 373Q888 375 887.5 376Q887 377 887 380Q887 383 887.5 384Q888 385 890 387Q892 389 893 389Q894 389 894.5 389.5Q895 390 897 390Q899 390 900 389.5Q901 389 903 387Q905 385 905.5 382.5Q906 380 905.5 379.5Q905 379 905 378Q905 377 904.5 376Q904 375 902.5 373.5Q901 372 900 371.5Q899 371 896 371ZM829 371.5Q828 372 828.5 372.5Q829 373 830 373Q831 373 832 373.5Q833 374 833.5 375Q834 376 834.5 374.5Q835 373 834 372.5Q833 372 832 372Q831 372 830.5 371.5Q830 371 829 371.5ZM905.5 359Q907 360 907 358Q907 356 906.5 355.5Q906 355 905 355Q904 355 903 354Q902 353 901.5 354Q901 355 899 355Q897 355 896.5 354.5Q896 354 894.5 354Q893 354 892.5 354.5Q892 355 894 355Q896 355 899 356.5Q902 358 903 358Q904 358 905.5 359ZM905 346.5Q904 346 904 347Q904 348 906 349Q908 350 908 348Q908 346 907 346.5Q906 347 905 346.5ZM748 355Q747 356 746 358Q745 360 744.5 362.5Q744 365 743.5 365.5Q743 366 743 372.5Q743 379 743.5 379.5Q744 380 744 381.5Q744 383 745 384.5Q746 386 746 387Q746 388 747.5 389.5Q749 391 751 390Q753 389 753.5 389Q754 389 754.5 390Q755 391 752 392.5Q749 394 748 395Q747 396 746.5 396Q746 396 743 399Q740 402 740 402.5Q740 403 739 404Q738 405 736.5 408Q735 411 735 412.5Q735 414 734.5 414.5Q734 415 734 421Q734 427 734.5 427.5Q735 428 735.5 430.5Q736 433 737.5 436Q739 439 740 440Q741 441 741 441.5Q741 442 745 446Q749 450 749.5 450Q750 450 752.5 452Q755 454 757 455Q759 456 760 456Q761 456 762.5 457Q764 458 765.5 458Q767 458 767.5 458.5Q768 459 769.5 459Q771 459 771.5 459.5Q772 460 780.5 460Q789 460 789.5 459.5Q790 459 792 459Q794 459 795 459.5Q796 460 797 461.5Q798 463 799.5 463Q801 463 801.5 463.5Q802 464 803 464Q804 464 804.5 464.5Q805 465 807.5 465.5Q810 466 811 466.5Q812 467 815.5 470.5Q819 474 821 475Q823 476 825.5 476.5Q828 477 829.5 478Q831 479 832.5 479Q834 479 836 480Q838 481 843.5 481.5Q849 482 850 483Q851 484 850.5 484.5Q850 485 851 485Q852 485 852.5 484Q853 483 859.5 483Q866 483 868.5 485Q871 487 872 487Q873 487 875 488Q877 489 878.5 489Q880 489 880.5 489.5Q881 490 882.5 490Q884 490 884.5 490.5Q885 491 893 491Q901 491 901.5 490.5Q902 490 904.5 490Q907 490 907.5 489.5Q908 489 910.5 488.5Q913 488 918 485.5Q923 483 924.5 481.5Q926 480 926.5 480Q927 480 932.5 474.5Q938 469 938 468.5Q938 468 939.5 466.5Q941 465 943 461Q945 457 945 456Q945 455 946 453.5Q947 452 947 451Q947 450 947.5 449.5Q948 449 948 447Q948 445 948.5 444.5Q949 444 949 435Q949 426 948 425Q947 424 943.5 422.5Q940 421 939 420Q938 419 937 419Q936 419 934 423Q932 427 929.5 429.5Q927 432 927 432.5Q927 433 926 434Q925 435 924.5 435Q924 435 922 437.5Q920 440 919 440Q918 440 917.5 441Q917 442 916.5 441.5Q916 441 915.5 442Q915 443 917 444Q919 445 922 448Q925 451 925.5 452Q926 453 926 457Q926 461 925.5 461.5Q925 462 925 463Q925 464 924.5 465Q924 466 921.5 468.5Q919 471 917 472Q915 473 911 473Q907 473 906 472.5Q905 472 902 469Q899 466 899 465Q899 464 898.5 463.5Q898 463 898 461.5Q898 460 898.5 459.5Q899 459 899 456.5Q899 454 900.5 451.5Q902 449 901 449Q900 449 899.5 448.5Q899 448 898 448Q897 448 895.5 449Q894 450 892 450Q890 450 889.5 449.5Q889 449 888 449Q887 449 887.5 449.5Q888 450 887.5 450.5Q887 451 885.5 451Q884 451 883.5 451.5Q883 452 879.5 452Q876 452 875.5 451.5Q875 451 874 451Q873 451 870 449.5Q867 448 865 448Q863 448 862.5 447.5Q862 447 860 447Q858 447 857.5 446.5Q857 446 856 446Q855 446 853 445Q851 444 849.5 442.5Q848 441 848.5 440.5Q849 440 848.5 440.5Q848 441 847.5 440Q847 439 846.5 439.5Q846 440 845.5 439Q845 438 844.5 438.5Q844 439 843.5 438Q843 437 842.5 437.5Q842 438 838.5 437.5Q835 437 833 435.5Q831 434 830.5 433Q830 432 830 430.5Q830 429 829 428Q828 427 828 426.5Q828 426 827 425.5Q826 425 824.5 422Q823 419 822 418.5Q821 418 821 416.5Q821 415 820 413.5Q819 412 819 411Q819 410 818.5 409.5Q818 409 818 407Q818 405 817.5 404.5Q817 404 817 397.5Q817 391 817.5 390.5Q818 390 818.5 386.5Q819 383 821.5 378Q824 373 825.5 371Q827 369 826 368.5Q825 368 824 368Q823 368 822.5 367.5Q822 367 821 367Q820 367 812.5 363Q805 359 803.5 357.5Q802 356 801.5 356Q801 356 796 351Q791 346 791 345.5Q791 345 788 341.5Q785 338 778.5 338Q772 338 771.5 338.5Q771 339 769.5 339Q768 339 767.5 339.5Q767 340 766 340Q765 340 763 341Q761 342 760 343Q759 344 758.5 344Q758 344 753.5 348.5Q749 353 749 353.5Q749 354 748 355ZM772 415Q772 414 772.5 413Q773 412 776 409Q779 406 781 405Q783 404 784 404Q785 404 785.5 403.5Q786 403 789 403Q792 403 792.5 403.5Q793 404 794 404Q795 404 797 405Q799 406 801.5 408.5Q804 411 804.5 412Q805 413 805 414Q805 415 805.5 415.5Q806 416 806 417.5Q806 419 806.5 419.5Q807 420 806.5 420.5Q806 421 805 421Q804 421 806.5 421Q809 421 810 422Q811 423 810 424Q809 425 808.5 425Q808 425 808 425.5Q808 426 813 431Q818 436 818.5 436Q819 436 820.5 437.5Q822 439 822.5 439Q823 439 825.5 441Q828 443 835 446.5Q842 450 843 450Q844 450 845.5 451Q847 452 848 452Q849 452 849.5 452.5Q850 453 851.5 453Q853 453 853.5 453.5Q854 454 856 454Q858 454 858.5 454.5Q859 455 862 455Q865 455 866.5 453.5Q868 452 870 454.5Q872 457 871 458Q870 459 869.5 458.5Q869 458 868 458.5Q867 459 866 459Q865 459 864.5 458.5Q864 458 862.5 458Q861 458 860.5 458.5Q860 459 858.5 458Q857 457 854.5 457Q852 457 851.5 456.5Q851 456 850 456Q849 456 848 455.5Q847 455 844 457.5Q841 460 837 462Q833 464 832.5 463.5Q832 463 831 463.5Q830 464 828.5 464Q827 464 826.5 463.5Q826 463 825 463Q824 463 823 462.5Q822 462 819.5 459.5Q817 457 816.5 456Q816 455 816 454Q816 453 815.5 452.5Q815 452 815 450Q815 448 814.5 447.5Q814 447 814 446Q814 445 814.5 444.5Q815 444 815 442Q815 440 815.5 439.5Q816 439 813.5 437Q811 435 811 434.5Q811 434 808.5 431.5Q806 429 806 428.5Q806 428 805 428Q804 428 803 430Q802 432 799.5 434.5Q797 437 796 437.5Q795 438 793.5 438Q792 438 791.5 438.5Q791 439 788 439Q785 439 784.5 438.5Q784 438 782.5 438Q781 438 777.5 435Q774 432 772.5 429Q771 426 771 421.5Q771 417 771.5 416.5Q772 416 772 415ZM660 342Q657 339 655 338Q653 337 652 337Q651 337 650.5 336.5Q650 336 648 336Q646 336 645.5 336.5Q645 337 644 337Q643 337 641 338Q639 339 637.5 340.5Q636 342 635 344Q634 346 634 350.5Q634 355 634.5 355.5Q635 356 635 357Q635 358 636 359Q637 360 638 362Q639 364 645 370.5Q651 377 650 378Q649 379 648 379.5Q647 380 646 380Q645 380 644 379Q643 378 642 378Q641 378 639.5 377Q638 376 637 376Q636 376 635.5 375.5Q635 375 633.5 375Q632 375 631.5 374.5Q631 374 630 374Q629 374 628.5 373.5Q628 373 626.5 373Q625 373 624.5 372.5Q624 372 621.5 372Q619 372 618.5 371.5Q618 371 614.5 371Q611 371 610.5 370.5Q610 370 605.5 370Q601 370 600.5 370.5Q600 371 596.5 371Q593 371 592.5 371.5Q592 372 590.5 372Q589 372 588.5 372.5Q588 373 587 373Q586 373 584 374Q582 375 581 376Q580 377 579.5 377Q579 377 576.5 379.5Q574 382 573.5 383Q573 384 573 387.5Q573 391 573.5 392Q574 393 576.5 395.5Q579 398 581 399Q583 400 584 400Q585 400 587 401Q589 402 601.5 402Q614 402 614.5 401.5Q615 401 618.5 401Q622 401 622.5 400.5Q623 400 625 400Q627 400 627.5 400.5Q628 401 627.5 402Q627 403 626 403Q625 403 624.5 403.5Q624 404 621.5 404.5Q619 405 616.5 406.5Q614 408 613 408Q612 408 608 410Q604 412 603 413Q602 414 600 415Q598 416 596.5 417.5Q595 419 594.5 419Q594 419 591.5 421.5Q589 424 586.5 429Q584 434 584 436Q584 438 584.5 438.5Q585 439 585 440Q585 441 586.5 443Q588 445 591 446.5Q594 448 598.5 448Q603 448 603.5 447.5Q604 447 605.5 447Q607 447 607.5 446.5Q608 446 609 446Q610 446 613 444.5Q616 443 621 439Q626 435 626.5 435Q627 435 634 428.5Q641 422 642 422.5Q643 423 643 424Q643 425 642 426Q641 427 640.5 427Q640 427 640 427.5Q640 428 639 429Q638 430 638 431Q638 432 640 433.5Q642 435 644 436Q646 437 647.5 437Q649 437 649.5 437.5Q650 438 655 438Q660 438 660.5 437.5Q661 437 662.5 437Q664 437 664.5 436.5Q665 436 666 436Q667 436 669 435Q671 434 672.5 432.5Q674 431 675.5 430.5Q677 430 677.5 430.5Q678 431 678 432Q678 433 676.5 434.5Q675 436 675 437Q675 438 676 438.5Q677 439 680.5 439Q684 439 687 437.5Q690 436 693 433Q696 430 697.5 427Q699 424 699 422.5Q699 421 699.5 420.5Q700 420 700 417Q700 414 699.5 413.5Q699 413 699 412Q699 411 697 408.5Q695 406 694 406Q693 406 692.5 406.5Q692 407 692 409Q692 411 691.5 412Q691 413 689.5 414.5Q688 416 687.5 415.5Q687 415 687 414Q687 413 688 411Q689 409 689 401.5Q689 394 688.5 393.5Q688 393 688 392Q688 391 686.5 388Q685 385 684 384Q683 383 683 382.5Q683 382 678 377.5Q673 373 672.5 372Q672 371 672 369.5Q672 368 671.5 367.5Q671 367 671 365.5Q671 364 670.5 363.5Q670 363 670 362Q670 361 669.5 360.5Q669 360 669 358.5Q669 357 668 355.5Q667 354 667 353Q667 352 665.5 350Q664 348 663.5 346.5Q663 345 660 342ZM686.5 416.5Q686 416 686.5 415.5Q687 415 687.5 415.5Q688 416 687.5 416.5Q687 417 686.5 416.5Z"/><path fill="#fa7d0a" stroke="#fa7d0a" stroke-width=".65" fill-rule="evenodd" d="M940.5 407Q940 407 940 408.5Q940 410 939.5 410.5Q939 411 939 412Q939 413 938.5 413.5Q938 414 938 415Q938 416 937.5 417Q937 418 942.5 421Q948 424 948 422.5Q948 421 947.5 420.5Q947 420 946.5 417.5Q946 415 944.5 412Q943 409 942 408Q941 407 940.5 407ZM788 339Q787 339 789.5 342Q792 345 792 345.5Q792 346 796.5 350.5Q801 355 801.5 355Q802 355 803.5 356.5Q805 358 812.5 362Q820 366 821 366Q822 366 824 367Q826 368 827 368Q828 368 828.5 367Q829 366 833 362.5Q837 359 837.5 359Q838 359 839 358Q840 357 843 355.5Q846 354 847 354Q848 354 850 353Q852 352 854 352Q856 352 856.5 351.5Q857 351 860.5 351Q864 351 864.5 351.5Q865 352 864.5 353Q864 354 863 354.5Q862 355 860.5 355Q859 355 854 357.5Q849 360 843.5 365Q838 370 835 375.5Q832 381 832 382Q832 383 831 385Q830 387 830 388.5Q830 390 829.5 390.5Q829 391 829 399.5Q829 408 829.5 408.5Q830 409 830 411Q830 413 831 414.5Q832 416 832 417Q832 418 833 419Q834 420 835 422.5Q836 425 841.5 430.5Q847 436 847.5 436Q848 436 849 437Q850 438 851 438.5Q852 439 853 439Q854 439 854.5 439.5Q855 440 857 440Q859 440 859.5 440.5Q860 441 861 441Q862 441 859 438Q856 435 857 434.5Q858 434 861.5 436.5Q865 439 866.5 439.5Q868 440 869 441Q870 442 871 442Q872 442 874 443Q876 444 878 444Q880 444 879.5 443.5Q879 443 878 443Q877 443 876.5 442.5Q876 442 873.5 441.5Q871 441 869 439.5Q867 438 865.5 437.5Q864 437 858.5 432Q853 427 853 426.5Q853 426 851 423.5Q849 421 848 418Q847 415 846.5 415.5Q846 416 845 415Q844 414 844 413Q844 412 843 410Q842 408 841.5 401.5Q841 395 841.5 394.5Q842 394 842 391Q842 388 842.5 387.5Q843 387 843.5 384.5Q844 382 847 376.5Q850 371 850.5 370.5Q851 370 852 370.5Q853 371 853.5 370Q854 369 858.5 364.5Q863 360 863.5 360Q864 360 865 359Q866 358 870 356Q874 354 875.5 354Q877 354 879 353Q881 352 884 352Q887 352 887.5 351.5Q888 351 891.5 351Q895 351 895.5 351.5Q896 352 897 351.5Q898 351 898.5 351.5Q899 352 900.5 352Q902 352 903 353Q904 354 905 354Q906 354 907 355Q908 356 908 358.5Q908 361 910 362Q912 363 916.5 367.5Q921 372 921 372.5Q921 373 922.5 374.5Q924 376 924 377Q924 378 926 381.5Q928 385 928 386.5Q928 388 928.5 388.5Q929 389 929 391.5Q929 394 929.5 394.5Q930 395 930 399.5Q930 404 929.5 404.5Q929 405 928.5 409.5Q928 414 926.5 416.5Q925 419 925 420Q925 421 924 422Q923 423 922 425Q921 427 913 434.5Q905 442 904 442Q903 442 902.5 442.5Q902 443 900.5 443Q899 443 898.5 443.5Q898 444 900 444Q902 444 902.5 443.5Q903 443 904.5 443Q906 443 911.5 440Q917 437 918.5 435Q920 433 921.5 432.5Q923 432 924 431Q925 430 925.5 428.5Q926 427 927 426.5Q928 426 928 425.5Q928 425 929 424.5Q930 424 930 423.5Q930 423 931 422Q932 421 933 419Q934 417 934.5 414.5Q935 412 935.5 411.5Q936 411 936 409.5Q936 408 936.5 407.5Q937 407 937 405Q937 403 937.5 402.5Q938 402 938 397Q938 392 937.5 391.5Q937 391 937 389Q937 387 936.5 386.5Q936 386 935.5 383.5Q935 381 932.5 376Q930 371 928.5 369.5Q927 368 927 367.5Q927 367 921.5 362Q916 357 912 355Q908 353 907 353Q906 353 905.5 352.5Q905 352 903.5 352Q902 352 901.5 351.5Q901 351 899 351Q897 351 896.5 350.5Q896 350 888.5 350Q881 350 880.5 350.5Q880 351 878.5 351Q877 351 876.5 351.5Q876 352 874.5 352Q873 352 872.5 352.5Q872 353 869.5 353Q867 353 866.5 352.5Q866 352 866.5 351Q867 350 868.5 350Q870 350 870.5 349.5Q871 349 873 349Q875 349 875.5 348.5Q876 348 877.5 348Q879 348 879.5 347.5Q880 347 885 347Q890 347 890 346.5Q890 346 889 345Q888 344 883 341.5Q878 339 877 339Q876 339 874 338Q872 337 870.5 337Q869 337 868.5 336.5Q868 336 864.5 336Q861 336 860.5 335.5Q860 335 855.5 335Q851 335 850.5 335.5Q850 336 847 336Q844 336 843.5 336.5Q843 337 841.5 337Q840 337 839.5 337.5Q839 338 837.5 338Q836 338 835.5 338.5Q835 339 834 339Q833 339 831.5 340Q830 341 829 341Q828 341 824 343Q820 345 819 346Q818 347 816 348Q814 349 810 352.5Q806 356 805.5 355Q805 354 807 351.5Q809 349 808.5 348Q808 347 807 346.5Q806 346 805 346.5Q804 347 802.5 347Q801 347 799 345Q797 343 793 341Q789 339 788 339ZM1004 303Q996 299 994.5 299Q993 299 992.5 298.5Q992 298 990 298Q988 298 987.5 297.5Q987 297 979.5 297Q972 297 971.5 297.5Q971 298 968.5 298Q966 298 965.5 298.5Q965 299 962.5 299.5Q960 300 955 302.5Q950 305 949 305Q948 305 947 304.5Q946 304 945.5 304.5Q945 305 942.5 305.5Q940 306 936 308Q932 310 930.5 311.5Q929 313 927.5 313.5Q926 314 924.5 315.5Q923 317 922.5 317Q922 317 917.5 321.5Q913 326 909.5 332.5Q906 339 906 340.5Q906 342 905.5 342.5Q905 343 905 344Q905 345 905.5 345.5Q906 346 907 345.5Q908 345 908.5 345.5Q909 346 909 348Q909 350 911.5 351Q914 352 916.5 354Q919 356 919.5 355.5Q920 355 920 352Q920 349 920.5 348.5Q921 348 922 348.5Q923 349 923 354Q923 359 928 364.5Q933 370 936 376Q939 382 939 383.5Q939 385 939.5 385.5Q940 386 940 387.5Q940 389 940.5 389.5Q941 390 941 396Q941 402 942 403Q943 404 944 406Q945 408 947 410Q949 412 949.5 412Q950 412 952.5 414Q955 416 954.5 416.5Q954 417 953 417Q952 417 951.5 416.5Q951 416 950.5 416.5Q950 417 951 419Q952 421 952 422Q952 423 952.5 423.5Q953 424 955.5 424Q958 424 958.5 424.5Q959 425 962 425Q965 425 965.5 424.5Q966 424 967 424Q968 424 968 423.5Q968 423 966.5 423Q965 423 964.5 422.5Q964 422 963 422Q962 422 960 421Q958 420 957 419Q956 418 956.5 417.5Q957 417 958 417Q959 417 960.5 418Q962 419 963 419Q964 419 964.5 419.5Q965 420 966.5 420Q968 420 968.5 420.5Q969 421 975.5 421.5Q982 422 982.5 421.5Q983 421 986 421Q989 421 989.5 420.5Q990 420 991.5 420Q993 420 993.5 419.5Q994 419 996.5 418.5Q999 418 1003 416Q1007 414 1008 413Q1009 412 1011 411Q1013 410 1017.5 405.5Q1022 401 1022 400.5Q1022 400 1023.5 398.5Q1025 397 1026.5 394Q1028 391 1029 390Q1030 389 1030 388Q1030 387 1031.5 384.5Q1033 382 1033 381Q1033 380 1034 378Q1035 376 1035 374Q1035 372 1035.5 371.5Q1036 371 1036 368.5Q1036 366 1036.5 365.5Q1037 365 1037 358.5Q1037 352 1036.5 351.5Q1036 351 1036 348.5Q1036 346 1035.5 345.5Q1035 345 1035 343.5Q1035 342 1034.5 341.5Q1034 341 1034 340Q1034 339 1033.5 338.5Q1033 338 1032.5 335.5Q1032 333 1030 329Q1028 325 1027 324Q1026 323 1025 321Q1024 319 1018 313Q1012 307 1004 303ZM954.5 417.5Q954 417 954.5 416.5Q955 416 955.5 416.5Q956 417 955.5 417.5Q955 418 954.5 417.5ZM990 363.5Q993 362 996 362Q999 362 999.5 362.5Q1000 363 1001 363Q1002 363 1005.5 366.5Q1009 370 1009 371Q1009 372 1009.5 372.5Q1010 373 1010 377.5Q1010 382 1009.5 382.5Q1009 383 1009 384Q1009 385 1006 388Q1003 391 1001 392Q999 393 995.5 393Q992 393 991.5 392.5Q991 392 990 392Q989 392 986 389Q983 386 982.5 385Q982 384 982 382.5Q982 381 981.5 380.5Q981 380 981 378.5Q981 377 981.5 376.5Q982 376 982 374Q982 372 982.5 371Q983 370 985 367.5Q987 365 990 363.5ZM950 351Q952 350 956 350Q960 350 962.5 352Q965 354 965 357Q965 360 965.5 360.5Q966 361 966 363.5Q966 366 967 367.5Q968 369 967 371Q966 373 964.5 374.5Q963 376 961 377Q959 378 955.5 378Q952 378 950 377Q948 376 946.5 374.5Q945 373 944 371Q943 369 943 368Q943 367 942.5 366.5Q942 366 942 364Q942 362 942.5 361.5Q943 361 943 359.5Q943 358 945.5 355Q948 352 950 351ZM985.5 319.5Q986 319 988 319Q990 319 990.5 319.5Q991 320 992 320Q993 320 994 320.5Q995 321 997.5 323.5Q1000 326 1001 328Q1002 330 1002 335Q1002 340 1001 342Q1000 344 997.5 346.5Q995 349 994 349.5Q993 350 991.5 350Q990 350 989.5 350.5Q989 351 987 351Q985 351 984.5 350.5Q984 350 983 350Q982 350 981 349.5Q980 349 978 347Q976 345 975 343Q974 341 974 340Q974 339 973.5 338.5Q973 338 973 335Q973 332 973.5 331.5Q974 331 974 330Q974 329 974.5 328Q975 327 978 324Q981 321 982 320.5Q983 320 984 320Q985 320 985.5 319.5ZM894 260Q889 255 888.5 255Q888 255 886.5 253.5Q885 252 880 249.5Q875 247 874 247Q873 247 872.5 246.5Q872 246 870.5 246Q869 246 868.5 245.5Q868 245 866 245Q864 245 863.5 244.5Q863 244 855.5 244Q848 244 847.5 244.5Q847 245 845.5 245Q844 245 843.5 245.5Q843 246 839.5 246.5Q836 247 831 249.5Q826 252 823.5 254Q821 256 819 256Q817 256 815 257Q813 258 812 259Q811 260 809 261Q807 262 805.5 263.5Q804 265 803.5 265Q803 265 798.5 269.5Q794 274 794 274.5Q794 275 792.5 276.5Q791 278 790 280.5Q789 283 788 284Q787 285 787 286Q787 287 786 288.5Q785 290 784.5 293.5Q784 297 783.5 297.5Q783 298 783 305.5Q783 313 783.5 313.5Q784 314 784 316Q784 318 784.5 318.5Q785 319 785.5 321.5Q786 324 787 325.5Q788 327 788 328Q788 329 789 331Q790 333 792 335Q794 337 795 337Q796 337 797 338Q798 339 804 342Q810 345 812 345Q814 345 816.5 343Q819 341 818.5 340.5Q818 340 818.5 339.5Q819 339 820 339.5Q821 340 822 340Q823 340 827.5 337.5Q832 335 833.5 335Q835 335 835.5 334.5Q836 334 837 334Q838 334 838.5 333.5Q839 333 841 333Q843 333 843.5 332.5Q844 332 848.5 332Q853 332 853.5 331.5Q854 331 856 331Q858 331 858.5 331.5Q859 332 863 332Q867 332 867.5 332.5Q868 333 871.5 333.5Q875 334 875.5 334.5Q876 335 878.5 335.5Q881 336 885 338Q889 340 893.5 335.5Q898 331 898 330.5Q898 330 900.5 327Q903 324 904 322Q905 320 905 319Q905 318 906 316.5Q907 315 907 314Q907 313 907.5 312.5Q908 312 908 310.5Q908 309 908.5 308.5Q909 308 909 305Q909 302 909.5 301.5Q910 301 910 297Q910 293 909.5 292.5Q909 292 909 289.5Q909 287 908.5 286.5Q908 286 908 284.5Q908 283 907.5 282.5Q907 282 906.5 279.5Q906 277 904.5 275Q903 273 901 269Q899 265 894 260ZM835.5 296.5Q836 296 838.5 296Q841 296 841.5 296.5Q842 297 843 297Q844 297 846.5 299.5Q849 302 849.5 303Q850 304 850 305.5Q850 307 849.5 307.5Q849 308 849 310Q849 312 849.5 312.5Q850 313 850 315.5Q850 318 847.5 320.5Q845 323 843 324Q841 325 838.5 325Q836 325 835.5 324.5Q835 324 834 324Q833 324 832 323.5Q831 323 829 321Q827 319 826 317Q825 315 825 314Q825 313 824.5 312.5Q824 312 824 311Q824 310 824.5 309.5Q825 309 825 307.5Q825 306 826 304Q827 302 829 300Q831 298 832 297.5Q833 297 834 297Q835 297 835.5 296.5ZM878 286Q881 286 882 286.5Q883 287 885.5 289.5Q888 292 888.5 293Q889 294 889 295Q889 296 889.5 296.5Q890 297 890 300Q890 303 889 305Q888 307 885.5 309.5Q883 312 882 312.5Q881 313 879.5 313Q878 313 877.5 313.5Q877 314 876 313.5Q875 313 873.5 313Q872 313 871 312.5Q870 312 868 310Q866 308 865 306Q864 304 864 300Q864 296 865.5 294Q867 292 867 291.5Q867 291 869.5 289Q872 287 873 287Q874 287 874.5 286.5Q875 286 878 286ZM845.5 259.5Q846 259 849 259Q852 259 854 260Q856 261 857 262Q858 263 858.5 264Q859 265 859 266.5Q859 268 859.5 268.5Q860 269 860 270Q860 271 859.5 272Q859 273 859.5 273.5Q860 274 860 275.5Q860 277 860.5 278Q861 279 859 281.5Q857 284 854 285.5Q851 287 848.5 287Q846 287 845.5 286.5Q845 286 844 286Q843 286 842 285.5Q841 285 839.5 283.5Q838 282 836.5 279Q835 276 835 273Q835 270 836 268Q837 266 840 263Q843 260 844 260Q845 260 845.5 259.5Z"/><path fill="#f12736" stroke="#f12736" stroke-width=".65" fill-rule="evenodd" d="M796 482.5Q796 482 794.5 480.5Q793 479 792.5 477.5Q792 476 791 475.5Q790 475 789.5 475.5Q789 476 785.5 476Q782 476 778 478Q774 480 773 480Q772 480 770 481Q768 482 766.5 482Q765 482 763 483Q761 484 759.5 484Q758 484 757.5 484.5Q757 485 755 485Q753 485 752.5 485.5Q752 486 750 486Q748 486 747.5 486.5Q747 487 741 487Q735 487 734.5 487.5Q734 488 730.5 488Q727 488 726.5 487.5Q726 487 721.5 487Q717 487 716.5 486.5Q716 486 714 486Q712 486 711.5 485.5Q711 485 708.5 485Q706 485 705.5 484.5Q705 484 703.5 484Q702 484 701.5 483.5Q701 483 698 483Q695 483 694.5 482.5Q694 482 689 482Q684 482 683.5 482.5Q683 483 680.5 483Q678 483 676 484Q674 485 672.5 485Q671 485 671 486.5Q671 488 670.5 488.5Q670 489 667.5 489Q665 489 664.5 489.5Q664 490 662.5 490Q661 490 660 491Q659 492 658.5 492Q658 492 653.5 496.5Q649 501 649.5 502Q650 503 648.5 505Q647 507 647 509.5Q647 512 650 510.5Q653 509 654 509Q655 509 656.5 508Q658 507 659 507Q660 507 660.5 506.5Q661 506 660.5 505.5Q660 505 658.5 505Q657 505 656.5 504.5Q656 504 653.5 504Q651 504 650.5 503.5Q650 503 651 502Q652 501 655 501Q658 501 658.5 501.5Q659 502 660 502Q661 502 664.5 504.5Q668 507 668.5 507Q669 507 671.5 509.5Q674 512 674 512.5Q674 513 675.5 514.5Q677 516 679.5 521Q682 526 686.5 531Q691 536 694 537.5Q697 539 698.5 539Q700 539 700.5 539.5Q701 540 703 540Q705 540 705.5 539.5Q706 539 707.5 539Q709 539 709.5 538.5Q710 538 711 538Q712 538 714 537Q716 536 717 535Q718 534 720 533Q722 532 723.5 530.5Q725 529 725.5 529Q726 529 725.5 528Q725 527 724 527Q723 527 722 526Q721 525 721.5 524.5Q722 524 724 524Q726 524 726.5 524.5Q727 525 728.5 525Q730 525 730.5 525.5Q731 526 732.5 526Q734 526 734.5 526.5Q735 527 736.5 527Q738 527 738.5 527.5Q739 528 743 528Q747 528 747.5 527.5Q748 527 749.5 527Q751 527 751.5 526.5Q752 526 753 526Q754 526 757 524.5Q760 523 763 520.5Q766 518 766.5 518Q767 518 770.5 514.5Q774 511 774 510.5Q774 510 778 505.5Q782 501 782 500.5Q782 500 783 499Q784 498 785 496Q786 494 787.5 492.5Q789 491 789 490.5Q789 490 792.5 486.5Q796 483 796 482.5ZM712.5 526Q715 524 715.5 524.5Q716 525 716 526Q716 527 715.5 527.5Q715 528 714 528Q713 528 713 531Q713 534 712 534.5Q711 535 710.5 534.5Q710 534 710 533Q710 532 709.5 531Q709 530 709.5 529Q710 528 712.5 526ZM786 478.5Q787 479 785.5 480.5Q784 482 783.5 482Q783 482 782 483Q781 484 779 485Q777 486 775.5 487.5Q774 489 773.5 489Q773 489 770.5 491Q768 493 767 493.5Q766 494 765.5 493.5Q765 493 765 492.5Q765 492 766.5 490.5Q768 489 769.5 488.5Q771 488 775 484.5Q779 481 782 479.5Q785 478 786 478.5ZM788 465Q787 466 787 467Q787 468 788 468.5Q789 469 791 469Q793 469 794.5 470.5Q796 472 795.5 472.5Q795 473 795 474.5Q795 476 797.5 479Q800 482 800 482.5Q800 483 805 488Q810 493 810.5 493Q811 493 812.5 494.5Q814 496 816 497Q818 498 819.5 498Q821 498 821.5 498.5Q822 499 826.5 499Q831 499 831.5 498.5Q832 498 833 498Q834 498 835.5 497Q837 496 838 496Q839 496 840 495.5Q841 495 840.5 494Q840 493 838.5 493Q837 493 836.5 492.5Q836 492 834.5 492Q833 492 831.5 491Q830 490 830.5 489Q831 488 834.5 488Q838 488 838.5 489Q839 490 840 490.5Q841 491 842.5 491Q844 491 844.5 491.5Q845 492 846 492Q847 492 849 493Q851 494 852.5 494Q854 494 854.5 494.5Q855 495 857.5 495Q860 495 861 494.5Q862 494 862 493Q862 492 861.5 491Q861 490 862 489.5Q863 489 863 488.5Q863 488 861.5 487Q860 486 854.5 486Q849 486 848.5 486.5Q848 487 847 487Q846 487 845 487.5Q844 488 841.5 486Q839 484 837.5 484Q836 484 835.5 483.5Q835 483 834 483Q833 483 831 482Q829 481 828.5 481Q828 481 828 482Q828 483 827.5 483.5Q827 484 826 483.5Q825 483 822.5 480.5Q820 478 819.5 478Q819 478 816 475Q813 472 812.5 472Q812 472 809.5 470Q807 468 806 468Q805 468 804.5 467.5Q804 467 802.5 467Q801 467 800.5 466.5Q800 466 798.5 466Q797 466 796.5 465.5Q796 465 794 465Q792 465 791.5 464.5Q791 464 790 464Q789 464 788 465Z"/><path fill="#ffad79" stroke="#ffad79" stroke-width=".65" fill-rule="evenodd" d="M917 445Q915 444 913.5 444Q912 444 910.5 445Q909 446 908 446Q907 446 906.5 446.5Q906 447 905 447Q904 447 903 447.5Q902 448 902.5 448.5Q903 449 901.5 451.5Q900 454 900 456.5Q900 459 899.5 459.5Q899 460 899 461.5Q899 463 899.5 463.5Q900 464 900 465Q900 466 902.5 468.5Q905 471 906 471.5Q907 472 911 472Q915 472 917 471Q919 470 921 468Q923 466 923.5 465Q924 464 924 463Q924 462 924.5 461.5Q925 461 925 457Q925 453 924.5 452Q924 451 921.5 448.5Q919 446 917 445ZM789 404Q786 404 785.5 404.5Q785 405 784 405Q783 405 781 406Q779 407 776.5 409.5Q774 412 773.5 413Q773 414 773 415Q773 416 772.5 416.5Q772 417 772 421.5Q772 426 773.5 429Q775 432 778 434.5Q781 437 782.5 437Q784 437 784.5 437.5Q785 438 788 438Q791 438 791.5 437.5Q792 437 793.5 437Q795 437 796 436.5Q797 436 799 434Q801 432 801 431.5Q801 431 802.5 429Q804 427 803 427Q802 427 801.5 427.5Q801 428 800 427Q799 426 799 425.5Q799 425 801.5 422.5Q804 420 805 420Q806 420 805.5 419.5Q805 419 805 417.5Q805 416 804.5 415.5Q804 415 804 414Q804 413 803.5 412Q803 411 801 409Q799 407 797 406Q795 405 794 405Q793 405 792.5 404.5Q792 404 789 404Z"/><path fill="#ffd075" stroke="#ffd075" stroke-width=".65" fill-rule="evenodd" d="M852 442.5Q849 441 850 442Q851 443 853 444Q855 445 856 445Q857 445 857.5 445.5Q858 446 860 446Q862 446 862.5 446.5Q863 447 865 447Q867 447 867.5 447.5Q868 448 869 448Q870 448 873 449.5Q876 451 879.5 451Q883 451 883.5 450.5Q884 450 885.5 450Q887 450 883.5 450Q880 450 879.5 449.5Q879 449 876 449Q873 449 872.5 448.5Q872 448 870 448Q868 448 867.5 447.5Q867 447 865.5 447Q864 447 863.5 446.5Q863 446 862 446Q861 446 860.5 445.5Q860 445 857.5 444.5Q855 444 852 442.5ZM835 433Q831 430 831 431Q831 432 832 433.5Q833 435 834 435.5Q835 436 836.5 436Q838 436 838.5 436.5Q839 437 840.5 437Q842 437 840.5 436.5Q839 436 835 433ZM852 372Q852 371 851.5 371Q851 371 851 371.5Q851 372 850 373Q849 374 847 378Q845 382 845 383Q845 384 844 386Q843 388 843 391Q843 394 842.5 394.5Q842 395 842.5 401.5Q843 408 843.5 408.5Q844 409 844 410Q844 411 845 413Q846 415 846 413.5Q846 412 845.5 411.5Q845 411 845 409Q845 407 844.5 406.5Q844 406 844 399.5Q844 393 844.5 392.5Q845 392 845 390Q845 388 845.5 387.5Q846 387 846 386Q846 385 846.5 384.5Q847 384 847.5 381.5Q848 379 849 377Q850 375 851 374Q852 373 852 372Z"/><path fill="#25212d" stroke="#25212d" stroke-width=".65" fill-rule="evenodd" d="M755 658Q749 658 749 658.5Q749 659 755 659Q761 659 761 658.5Q761 658 755 658ZM809 520Q808 520 805.5 522Q803 524 802 526Q801 528 801 529.5Q801 531 800.5 531.5Q800 532 800 533Q800 534 800.5 534.5Q801 535 801.5 537.5Q802 540 803 541Q804 542 804 542.5Q804 543 806 544.5Q808 546 809 546Q810 546 810.5 546.5Q811 547 814.5 547Q818 547 818.5 546.5Q819 546 819.5 546.5Q820 547 822.5 544.5Q825 542 825.5 542Q826 542 826 541Q826 540 827 538Q828 536 828 533.5Q828 531 827.5 530.5Q827 530 827 528.5Q827 527 824.5 524Q822 521 820 520Q818 519 814.5 519Q811 519 810.5 519.5Q810 520 809 520ZM815 526Q815 525 815.5 524.5Q816 524 817 524Q818 524 819.5 525.5Q821 527 821.5 528Q822 529 822 530Q822 531 821 531.5Q820 532 819 531Q818 530 818 529.5Q818 529 817.5 529Q817 529 816 528Q815 527 815 526ZM782 482Q786 479 782.5 480.5Q779 482 775 485.5Q771 489 769.5 489.5Q768 490 767 491Q766 492 766 492.5Q766 493 769.5 490.5Q773 488 773.5 488Q774 488 775.5 486.5Q777 485 777.5 485Q778 485 782 482ZM801.5 423.5Q800 425 800.5 426Q801 427 801.5 426.5Q802 426 803 426Q804 426 805 426.5Q806 427 806.5 428Q807 429 809.5 431.5Q812 434 812 434.5Q812 435 812.5 435Q813 435 815 437Q817 439 816.5 439.5Q816 440 816 442Q816 444 815.5 444.5Q815 445 815 446Q815 447 815.5 447.5Q816 448 816 450Q816 452 816.5 452.5Q817 453 817 454Q817 455 817.5 456Q818 457 820 459Q822 461 823 461.5Q824 462 825 462Q826 462 826.5 462.5Q827 463 828.5 463Q830 463 831 462.5Q832 462 832.5 462.5Q833 463 837 461Q841 459 844 456.5Q847 454 848 454.5Q849 455 850 455Q851 455 851.5 455.5Q852 456 854.5 456Q857 456 858.5 457Q860 458 860.5 457.5Q861 457 862.5 457Q864 457 864.5 457.5Q865 458 866 458Q867 458 867.5 457.5Q868 457 869 457.5Q870 458 870.5 457.5Q871 457 869.5 455Q868 453 866.5 454.5Q865 456 862 456Q859 456 858.5 455.5Q858 455 856 455Q854 455 853.5 454.5Q853 454 851.5 454Q850 454 847 452.5Q844 451 843 451Q842 451 835 447.5Q828 444 827 443Q826 442 824 441Q822 440 820.5 438.5Q819 437 818.5 437Q818 437 812.5 431.5Q807 426 807 425.5Q807 425 808.5 424Q810 423 809.5 422.5Q809 422 806 422Q803 422 801.5 423.5ZM823 445Q824 444 825 444Q826 444 827 445Q828 446 831.5 447.5Q835 449 836.5 450.5Q838 452 836.5 455Q835 458 833 460Q831 462 829 462Q827 462 825 461Q823 460 821 458Q819 456 819 454Q819 452 820.5 449Q822 446 823 445ZM996 363Q993 363 990 364.5Q987 366 985 369Q983 372 983 374Q983 376 982.5 376.5Q982 377 982 378.5Q982 380 982.5 380.5Q983 381 983 382.5Q983 384 983.5 385Q984 386 986.5 388.5Q989 391 990 391Q991 391 991.5 391.5Q992 392 995.5 392Q999 392 1001 391Q1003 390 1005.5 387.5Q1008 385 1008 384Q1008 383 1008.5 382.5Q1009 382 1009 377.5Q1009 373 1008.5 372.5Q1008 372 1008 371Q1008 370 1005 367Q1002 364 1001 364Q1000 364 999.5 363.5Q999 363 996 363ZM956 351Q952 351 950 352Q948 353 946 355.5Q944 358 944 359.5Q944 361 943.5 361.5Q943 362 943 364Q943 366 943.5 366.5Q944 367 944 368Q944 369 945 371Q946 373 947 374Q948 375 950 376Q952 377 955.5 377Q959 377 961 376Q963 375 964 374Q965 373 966 371Q967 369 966 367.5Q965 366 965 363.5Q965 361 964.5 360.5Q964 360 964 357Q964 354 962 352.5Q960 351 956 351ZM988 320Q986 320 985.5 320.5Q985 321 984 321Q983 321 982 321.5Q981 322 978.5 324.5Q976 327 975.5 328Q975 329 975 330Q975 331 974.5 331.5Q974 332 974 335Q974 338 974.5 338.5Q975 339 975 340Q975 341 976 343Q977 345 978.5 346.5Q980 348 981 348.5Q982 349 983 349Q984 349 984.5 349.5Q985 350 987 350Q989 350 989.5 349.5Q990 349 991.5 349Q993 349 994 348.5Q995 348 997 346Q999 344 1000 342Q1001 340 1001 335Q1001 330 1000 328Q999 326 997 324Q995 322 994 321.5Q993 321 992 321Q991 321 990.5 320.5Q990 320 988 320ZM838.5 297Q836 297 835.5 297.5Q835 298 834 298Q833 298 832 298.5Q831 299 829.5 300.5Q828 302 827 304Q826 306 826 307.5Q826 309 825.5 309.5Q825 310 825 311Q825 312 825.5 312.5Q826 313 826 314Q826 315 827 317Q828 319 829.5 320.5Q831 322 832 322.5Q833 323 834 323Q835 323 835.5 323.5Q836 324 838.5 324Q841 324 843 323Q845 322 847 320Q849 318 849 315.5Q849 313 848.5 312.5Q848 312 848 310Q848 308 848.5 307.5Q849 307 849 305.5Q849 304 848.5 303Q848 302 846 300Q844 298 843 298Q842 298 841.5 297.5Q841 297 838.5 297ZM882 287.5Q881 287 878 287Q875 287 874.5 287.5Q874 288 873 288Q872 288 870 289.5Q868 291 868 291.5Q868 292 866.5 294Q865 296 865 300Q865 304 866 306Q867 308 869.5 310Q872 312 873.5 312Q875 312 876 312.5Q877 313 877.5 312.5Q878 312 879.5 312Q881 312 882 311.5Q883 311 885 309Q887 307 888 305Q889 303 889 300Q889 297 888.5 296.5Q888 296 888 295Q888 294 887.5 293Q887 292 885 290Q883 288 882 287.5ZM849 260Q846 260 845.5 260.5Q845 261 844 261Q843 261 840.5 263.5Q838 266 837 268Q836 270 836 273Q836 276 836.5 276.5Q837 277 837 278Q837 279 839 281.5Q841 284 842 284.5Q843 285 844 285Q845 285 845.5 285.5Q846 286 848.5 286Q851 286 854 284.5Q857 283 858.5 281Q860 279 859.5 278Q859 277 859 275.5Q859 274 858.5 273.5Q858 273 858.5 272Q859 271 859 270Q859 269 858.5 268.5Q858 268 858 266.5Q858 265 857 263.5Q856 262 854 261Q852 260 849 260ZM576 375.5Q573 378 573 378.5Q573 379 571.5 381Q570 383 570 387.5Q570 392 571 394Q572 396 573.5 397.5Q575 399 575.5 399Q576 399 577 400Q578 401 580 402Q582 403 583.5 403Q585 403 585.5 403.5Q586 404 588 404Q590 404 590.5 404.5Q591 405 598 405Q605 405 605.5 405.5Q606 406 606 407Q606 408 605.5 408.5Q605 409 603.5 409.5Q602 410 601 411Q600 412 597 413.5Q594 415 590 419Q586 423 586 423.5Q586 424 585 425Q584 426 583 428Q582 430 582 431Q582 432 581.5 432.5Q581 433 581 436Q581 439 581.5 439.5Q582 440 582 441Q582 442 582.5 443Q583 444 585.5 446.5Q588 449 589 449.5Q590 450 591 450Q592 450 592.5 450.5Q593 451 599.5 451Q606 451 606.5 450.5Q607 450 609.5 449.5Q612 449 614 447.5Q616 446 619 444.5Q622 443 627.5 438Q633 433 634.5 433Q636 433 638 435Q640 437 643 438.5Q646 440 647.5 440Q649 440 649.5 440.5Q650 441 655 441Q660 441 660.5 440.5Q661 440 663.5 440Q666 440 667 439Q668 438 669.5 438Q671 438 671.5 439Q672 440 673.5 441Q675 442 681 442Q687 442 687.5 441.5Q688 441 689 441Q690 441 692 442Q694 443 699.5 447Q705 451 707.5 452Q710 453 711 454Q712 455 713 455.5Q714 456 715 456Q716 456 718 457.5Q720 459 722 460Q724 461 725 461Q726 461 728.5 462.5Q731 464 733.5 464.5Q736 465 738.5 466.5Q741 468 743 468Q745 468 745.5 468.5Q746 469 747.5 469Q749 469 749.5 469.5Q750 470 751.5 470Q753 470 753.5 470.5Q754 471 755.5 471Q757 471 757.5 471.5Q758 472 760.5 472Q763 472 763.5 472.5Q764 473 767 473Q770 473 771 474Q772 475 772 476Q772 477 771.5 477.5Q771 478 770 478Q769 478 768.5 478.5Q768 479 767 479Q766 479 764 480Q762 481 760.5 481Q759 481 758.5 481.5Q758 482 756.5 482Q755 482 754.5 482.5Q754 483 751.5 483Q749 483 748.5 483.5Q748 484 743.5 484Q739 484 738.5 484.5Q738 485 732.5 485Q727 485 726.5 484.5Q726 484 721 484Q716 484 715.5 483.5Q715 483 713 483Q711 483 710.5 482.5Q710 482 708.5 482Q707 482 706.5 481.5Q706 481 704 481Q702 481 700 480Q698 479 697.5 479.5Q697 480 695.5 480Q694 480 693.5 479.5Q693 479 687.5 479Q682 479 681.5 479.5Q681 480 679 480Q677 480 676.5 480.5Q676 481 674.5 481Q673 481 672.5 481.5Q672 482 671 482Q670 482 669 482.5Q668 483 667 484Q666 485 665 485Q664 485 661 487.5Q658 490 657 490Q656 490 655 491Q654 492 653.5 492Q653 492 650 495.5Q647 499 646 499Q645 499 645.5 499.5Q646 500 646 501Q646 502 645 503.5Q644 505 644 509.5Q644 514 643.5 514.5Q643 515 645.5 515Q648 515 649 514Q650 513 654 511Q658 509 659 509Q660 509 660.5 508.5Q661 508 662 508Q663 508 664 509Q665 510 666.5 510Q668 510 672 515Q676 520 676 521.5Q676 523 678 525Q680 527 680.5 528.5Q681 530 685 534Q689 538 689.5 538Q690 538 691 539Q692 540 693 540Q694 540 695 540.5Q696 541 697 542Q698 543 698.5 542.5Q699 542 701.5 542.5Q704 543 704.5 542.5Q705 542 707.5 542Q710 542 710.5 541.5Q711 541 712 541Q713 541 714 540.5Q715 540 716 539Q717 538 719 537Q721 536 722.5 534.5Q724 533 724.5 533Q725 533 727 531Q729 529 731.5 529Q734 529 734.5 529.5Q735 530 737 530Q739 530 739.5 530.5Q740 531 743 531Q746 531 746.5 530.5Q747 530 749 530Q751 530 751.5 529.5Q752 529 753 529Q754 529 757 527.5Q760 526 761 525Q762 524 762.5 524Q763 524 764 523Q765 522 767 521Q769 520 769.5 519Q770 518 773 515.5Q776 513 777 513Q778 513 778 511.5Q778 510 780 508Q782 506 783 504Q784 502 785 501Q786 500 787 500Q788 500 787.5 499.5Q787 499 787 498Q787 497 789 495Q791 493 793 493Q795 493 796 494Q797 495 797 497.5Q797 500 796.5 500.5Q796 501 796 505.5Q796 510 793 511.5Q790 513 788.5 514.5Q787 516 786 518Q785 520 785 522.5Q785 525 784.5 525.5Q784 526 784.5 526.5Q785 527 785 530Q785 533 785.5 533.5Q786 534 786 535Q786 536 786.5 537Q787 538 789.5 540.5Q792 543 792 544.5Q792 546 791 546.5Q790 547 792.5 546.5Q795 546 796.5 547.5Q798 549 798 553Q798 557 797.5 557.5Q797 558 797 561.5Q797 565 796.5 565.5Q796 566 796 568Q796 570 795 570.5Q794 571 794 573Q794 575 793 576Q792 577 791.5 577Q791 577 791 578Q791 579 792 578.5Q793 578 794 578Q795 578 795.5 578.5Q796 579 796 596.5Q796 614 795.5 614.5Q795 615 792.5 615.5Q790 616 789 617Q788 618 787.5 618Q787 618 785.5 620Q784 622 783 622Q782 622 780.5 621Q779 620 775.5 619.5Q772 619 771.5 618.5Q771 618 768 618Q765 618 764.5 617.5Q764 617 760.5 617Q757 617 756.5 617.5Q756 618 751 618Q746 618 742 620Q738 622 736.5 622Q735 622 734 623Q733 624 731 625Q729 626 724.5 630.5Q720 635 720 635.5Q720 636 719 637Q718 638 716.5 641Q715 644 715 645Q715 646 714.5 646.5Q714 647 714 649.5Q714 652 713.5 652.5Q713 653 713 658Q713 663 712.5 663.5Q712 664 712 667Q712 670 712.5 670.5Q713 671 714 670.5Q715 670 762.5 670Q810 670 810.5 669.5Q811 669 825.5 669Q840 669 840.5 668Q841 667 841 659.5Q841 652 840.5 651.5Q840 651 840 649.5Q840 648 839 646Q838 644 837.5 644Q837 644 836.5 643Q836 642 833.5 639.5Q831 637 830 636.5Q829 636 829 635Q829 634 830 632.5Q831 631 831 627.5Q831 624 830.5 623Q830 622 828 620Q826 618 825 617.5Q824 617 823 617Q822 617 820 615.5Q818 614 817 614Q816 614 815.5 613.5Q815 613 815 608.5Q815 604 815.5 603.5Q816 603 816 595Q816 587 815.5 586.5Q815 586 815 576.5Q815 567 817 565.5Q819 564 819 562.5Q819 561 819.5 560.5Q820 560 828.5 560Q837 560 837.5 559.5Q838 559 840 559Q842 559 842.5 558.5Q843 558 844.5 558Q846 558 848 557Q850 556 851.5 556Q853 556 854 557Q855 558 857 559Q859 560 863 563.5Q867 567 867.5 567Q868 567 871 570Q874 573 874 574Q874 575 873.5 575.5Q873 576 870.5 576.5Q868 577 868.5 577Q869 577 870 578Q871 579 871.5 578Q872 577 874.5 576.5Q877 576 878 577Q879 578 879 578.5Q879 579 881 581Q883 583 883 583.5Q883 584 884.5 585.5Q886 587 886 587.5Q886 588 888 590.5Q890 593 890 594Q890 595 889.5 595.5Q889 596 886.5 596Q884 596 883.5 595Q883 594 882.5 594Q882 594 882 596Q882 598 882.5 597.5Q883 597 887 597Q891 597 892.5 598.5Q894 600 894.5 601Q895 602 895 603Q895 604 897.5 609Q900 614 900 617Q900 620 899 621Q898 622 897.5 622Q897 622 895 624Q893 626 892.5 627Q892 628 892 632.5Q892 637 890.5 638Q889 639 886 639Q883 639 882.5 639.5Q882 640 883 640Q884 640 884.5 640.5Q885 641 885 642.5Q885 644 886 644.5Q887 645 887 646Q887 647 885 650.5Q883 654 883 655.5Q883 657 882.5 657.5Q882 658 882 660.5Q882 663 881.5 663.5Q881 664 879.5 664Q878 664 877.5 663.5Q877 663 877 662Q877 661 876.5 661Q876 661 876 661.5Q876 662 875 662.5Q874 663 874 663.5Q874 664 875 664.5Q876 665 876 666Q876 667 874.5 668Q873 669 918.5 669Q964 669 965 670Q966 671 966 671.5Q966 672 966.5 672Q967 672 967.5 671Q968 670 969.5 670Q971 670 971.5 670.5Q972 671 974 671Q976 671 976.5 671.5Q977 672 980.5 672Q984 672 983 671.5Q982 671 980.5 671Q979 671 978.5 670.5Q978 670 978.5 668.5Q979 667 933.5 667Q888 667 887 667.5Q886 668 885 667Q884 666 884 662Q884 658 884.5 657.5Q885 657 885 656Q885 655 886.5 652Q888 649 891.5 645.5Q895 642 895.5 642Q896 642 898 640.5Q900 639 900 638.5Q900 638 898.5 638Q897 638 895.5 636.5Q894 635 894 632Q894 629 894.5 628Q895 627 897.5 624.5Q900 622 904 620Q908 618 909 618Q910 618 910.5 617.5Q911 617 912.5 617Q914 617 914.5 616.5Q915 616 921.5 615.5Q928 615 928.5 615.5Q929 616 930.5 616Q932 616 932.5 616.5Q933 617 934 617Q935 617 937 619.5Q939 622 939 624Q939 626 937 628.5Q935 631 931 631Q927 631 927 631.5Q927 632 928.5 632Q930 632 930.5 633Q931 634 929 635.5Q927 637 926.5 637Q926 637 924.5 638.5Q923 640 922.5 640Q922 640 920.5 641.5Q919 643 919 643.5Q919 644 924.5 640Q930 636 933 634.5Q936 633 937 633Q938 633 940 632Q942 631 943.5 631Q945 631 945.5 630.5Q946 630 955.5 630Q965 630 965.5 630.5Q966 631 967.5 631Q969 631 969.5 631.5Q970 632 971 632Q972 632 975 633.5Q978 635 979.5 636.5Q981 638 981.5 638Q982 638 985.5 641.5Q989 645 992 650.5Q995 656 995 658Q995 660 995.5 660.5Q996 661 996 664Q996 667 995 668Q994 669 993.5 669Q993 669 994.5 670Q996 671 997 671Q998 671 998 664Q998 657 997.5 656.5Q997 656 997 654.5Q997 653 996 651Q995 649 994 648Q993 647 993 646.5Q993 646 989 641.5Q985 637 984.5 636Q984 635 983.5 635Q983 635 982 634Q981 633 979.5 633Q978 633 977.5 632.5Q977 632 976 632Q975 632 972 630.5Q969 629 965.5 628.5Q962 628 961.5 627.5Q961 627 961 626Q961 625 962.5 623.5Q964 622 963.5 621.5Q963 621 962 622Q961 623 959.5 623Q958 623 957 622.5Q956 622 955.5 622.5Q955 623 956 623.5Q957 624 957 625Q957 626 956 627Q955 628 951 628Q947 628 946.5 628.5Q946 629 943.5 629Q941 629 940.5 628.5Q940 628 940.5 625.5Q941 623 940.5 622.5Q940 622 940 621Q940 620 939.5 619Q939 618 938 617Q937 616 934.5 615.5Q932 615 931.5 614Q931 613 930 613Q929 613 928.5 613.5Q928 614 926.5 614Q925 614 923.5 613Q922 612 921.5 608.5Q921 605 919.5 602.5Q918 600 918 599Q918 598 916 595.5Q914 593 913.5 591.5Q913 590 912 589Q911 588 911 587.5Q911 587 910 586Q909 585 908 583Q907 581 896.5 570Q886 559 885.5 559Q885 559 883 557Q881 555 880.5 555Q880 555 878.5 553.5Q877 552 876.5 552Q876 552 874 550Q872 548 871 547.5Q870 547 869 547Q868 547 867 546Q866 545 866 544Q866 543 867.5 541Q869 539 869 537.5Q869 536 870 535Q871 534 871 528.5Q871 523 870.5 522.5Q870 522 870 520Q870 518 865 513.5Q860 509 860 507.5Q860 506 860.5 505.5Q861 505 862.5 505Q864 505 865.5 506.5Q867 508 867.5 508Q868 508 871 510.5Q874 513 875.5 513.5Q877 514 878 515Q879 516 880 516Q881 516 884.5 518Q888 520 889 520Q890 520 890.5 520.5Q891 521 893.5 521.5Q896 522 897.5 523Q899 524 900.5 524Q902 524 902.5 524.5Q903 525 904 525Q905 525 905.5 525.5Q906 526 908 526Q910 526 910.5 526.5Q911 527 913 527Q915 527 915.5 527.5Q916 528 922 528Q928 528 928.5 528.5Q929 529 932.5 529Q936 529 937 530Q938 531 938.5 532.5Q939 534 941.5 536.5Q944 539 946 540Q948 541 951 541Q954 541 954.5 540.5Q955 540 956.5 540Q958 540 959.5 541Q961 542 962 542Q963 542 963.5 542.5Q964 543 965.5 543Q967 543 969 545.5Q971 548 971.5 548Q972 548 973 549Q974 550 975 550Q976 550 978 551Q980 552 982.5 552Q985 552 985.5 551.5Q986 551 987.5 551Q989 551 991 550Q993 549 994 548Q995 547 995 546.5Q995 546 996 545Q997 544 997 541Q997 538 998 537Q999 536 1000 536Q1001 536 1002.5 534.5Q1004 533 1005 531Q1006 529 1006 525Q1006 521 1006.5 520.5Q1007 520 1015.5 520Q1024 520 1024.5 519.5Q1025 519 1026.5 519Q1028 519 1028.5 518.5Q1029 518 1030 518Q1031 518 1032 517.5Q1033 517 1035 515Q1037 513 1037.5 512Q1038 511 1038 507.5Q1038 504 1037 502Q1036 500 1033.5 498Q1031 496 1029 495Q1027 494 1026 494Q1025 494 1024.5 493.5Q1024 493 1022.5 493Q1021 493 1020.5 492.5Q1020 492 1011.5 492Q1003 492 1002.5 492.5Q1002 493 999 493Q996 493 995.5 492.5Q995 492 995 490.5Q995 489 997.5 486Q1000 483 1000.5 482Q1001 481 1001 480Q1001 479 1001.5 478.5Q1002 478 1002 473Q1002 468 1001 467.5Q1000 467 999.5 465.5Q999 464 998 463Q997 462 995 461Q993 460 992 460Q991 460 990.5 459.5Q990 459 988 459Q986 459 985.5 459.5Q985 460 982.5 460.5Q980 461 977 464Q974 467 969.5 477Q965 487 963 489Q961 491 960 491Q959 491 957 493Q955 495 950.5 495Q946 495 944 496Q942 497 940 499.5Q938 502 937.5 503Q937 504 937 505Q937 506 935 508.5Q933 511 931 511Q929 511 928.5 510.5Q928 510 924.5 510Q921 510 920.5 509.5Q920 509 916.5 509Q913 509 912.5 508.5Q912 508 909.5 508Q907 508 905 507Q903 506 901.5 506Q900 506 899.5 505.5Q899 505 898 505Q897 505 895 504Q893 503 891.5 503Q890 503 889.5 502.5Q889 502 888 502Q887 502 881.5 499Q876 496 876 495Q876 494 876.5 493.5Q877 493 879.5 493Q882 493 882.5 493.5Q883 494 893.5 494Q904 494 904.5 493.5Q905 493 906.5 493Q908 493 908.5 492.5Q909 492 910 492Q911 492 912.5 491Q914 490 915 490Q916 490 919 488.5Q922 487 923 486Q924 485 925.5 484.5Q927 484 928 483Q929 482 931 481Q933 480 933 479.5Q933 479 936.5 475.5Q940 472 940 471.5Q940 471 942 468.5Q944 466 946 462Q948 458 948 457Q948 456 949 454.5Q950 453 950 451.5Q950 450 951 448Q952 446 952 443Q952 440 952.5 439.5Q953 439 953 435.5Q953 432 952.5 431.5Q952 431 952 429.5Q952 428 952.5 427.5Q953 427 962.5 427Q972 427 972.5 426.5Q973 426 976.5 426Q980 426 980.5 425.5Q981 425 983 425Q985 425 986.5 426Q988 427 989 427Q990 427 990 425.5Q990 424 990.5 423.5Q991 423 992 423Q993 423 993.5 424Q994 425 996.5 423Q999 421 1001 420Q1003 419 1004 419Q1005 419 1010 415Q1015 411 1016 410.5Q1017 410 1018.5 410Q1020 410 1020.5 409.5Q1021 409 1021 407.5Q1021 406 1024.5 402Q1028 398 1032 390Q1036 382 1036 381Q1036 380 1036.5 379.5Q1037 379 1037 377.5Q1037 376 1037.5 375.5Q1038 375 1038 373.5Q1038 372 1038.5 371.5Q1039 371 1039 367Q1039 363 1039.5 362.5Q1040 362 1040 358.5Q1040 355 1039.5 354.5Q1039 354 1039 350.5Q1039 347 1038.5 346.5Q1038 346 1038 344Q1038 342 1037.5 341.5Q1037 341 1037 340Q1037 339 1036.5 338.5Q1036 338 1035.5 335.5Q1035 333 1033 329Q1031 325 1030 324Q1029 323 1028.5 321.5Q1028 320 1026.5 318.5Q1025 317 1025 316.5Q1025 316 1020.5 311.5Q1016 307 1015.5 307Q1015 307 1013.5 305.5Q1012 304 1012 303Q1012 302 1011 301.5Q1010 301 1008 301Q1006 301 1004.5 300Q1003 299 1002 299Q1001 299 999.5 298Q998 297 997 297Q996 297 995.5 296.5Q995 296 993.5 296Q992 296 991.5 295.5Q991 295 988 295Q985 295 984.5 294.5Q984 294 979.5 294Q975 294 974.5 294.5Q974 295 971 295Q968 295 967.5 295.5Q967 296 965.5 296Q964 296 963.5 295.5Q963 295 960 296.5Q957 298 955.5 298Q954 298 950 300.5Q946 303 943 303Q940 303 932.5 307Q925 311 919 316.5Q913 322 913 322.5Q913 323 910.5 326Q908 329 906 333Q904 337 904 338Q904 339 903 341Q902 343 902 345Q902 347 901.5 347.5Q901 348 899.5 348Q898 348 895 345.5Q892 343 892 342Q892 341 896 337Q900 333 900 332.5Q900 332 901.5 330.5Q903 329 906.5 322Q910 315 910 313.5Q910 312 910.5 311.5Q911 311 911 309Q911 307 911.5 306.5Q912 306 912 297.5Q912 289 911.5 288.5Q911 288 911 287Q911 286 911.5 285.5Q912 285 911 284Q910 283 909.5 280.5Q909 278 906.5 273Q904 268 900.5 264Q897 260 897 259.5Q897 259 891.5 254.5Q886 250 881 247.5Q876 245 875 245Q874 245 872 244Q870 243 867.5 243Q865 243 864.5 242.5Q864 242 855.5 242Q847 242 846.5 242.5Q846 243 844 243Q842 243 841.5 243.5Q841 244 839.5 244Q838 244 835 245.5Q832 247 831 247Q830 247 828.5 248Q827 249 826 249Q825 249 818 252.5Q811 256 810 257Q809 258 807 259Q805 260 803.5 261.5Q802 263 801.5 263Q801 263 796.5 267.5Q792 272 791 274Q790 276 789 276.5Q788 277 788 278Q788 279 787 280Q786 281 785 283Q784 285 784 286Q784 287 783.5 287.5Q783 288 782.5 290.5Q782 293 781 294Q780 295 780.5 295.5Q781 296 781 298Q781 300 780.5 300.5Q780 301 780 306.5Q780 312 780.5 312.5Q781 313 781 315Q781 317 781.5 317.5Q782 318 782.5 321.5Q783 325 784 326.5Q785 328 785 329Q785 330 786 331Q787 332 787 333Q787 334 786.5 334.5Q786 335 779 335Q772 335 771.5 335.5Q771 336 769.5 336Q768 336 767.5 336.5Q767 337 766 337Q765 337 761 339Q757 341 755 343Q753 345 751.5 345Q750 345 750 345.5Q750 346 748.5 347.5Q747 349 747 350Q747 351 746 352Q745 353 744.5 353Q744 353 744 354.5Q744 356 743.5 356.5Q743 357 743 358Q743 359 741.5 361Q740 363 740 372Q740 381 740.5 381.5Q741 382 741 384Q741 386 742 387Q743 388 744 390Q745 392 745 393Q745 394 744 394.5Q743 395 740 398Q737 401 737 401.5Q737 402 736 403Q735 404 733.5 407Q732 410 732 411.5Q732 413 731.5 413.5Q731 414 731 421Q731 428 731.5 428.5Q732 429 732 430.5Q732 432 732.5 432.5Q733 433 733 434Q733 435 734 437Q735 439 736 440Q737 441 737 442Q737 443 736.5 443.5Q736 444 734.5 444Q733 444 731 443Q729 442 728 441Q727 440 725.5 439.5Q724 439 720 436Q716 433 712.5 431.5Q709 430 708 429Q707 428 705 427Q703 426 703 419.5Q703 413 702.5 412.5Q702 412 702 411Q702 410 701 408Q700 406 696 404Q692 402 692 398.5Q692 395 691.5 394.5Q691 394 690.5 391.5Q690 389 688.5 386Q687 383 684 379.5Q681 376 680.5 376Q680 376 677.5 374Q675 372 675 370.5Q675 369 674.5 368.5Q674 368 674 366Q674 364 673.5 363.5Q673 363 673 361.5Q673 360 672.5 359.5Q672 359 671.5 356.5Q671 354 668.5 349Q666 344 664 341.5Q662 339 661.5 339Q661 339 659.5 337.5Q658 336 656 335Q654 334 652.5 334Q651 334 650.5 333.5Q650 333 647.5 333Q645 333 644.5 333.5Q644 334 643 334Q642 334 640 335Q638 336 635.5 338.5Q633 341 632 343Q631 345 631 350.5Q631 356 631.5 356.5Q632 357 632 358Q632 359 633 360Q634 361 634.5 362.5Q635 364 638.5 367.5Q642 371 642 372Q642 373 641.5 373.5Q641 374 640 374Q639 374 637 373Q635 372 633.5 372Q632 372 630 371Q628 370 626.5 370Q625 370 624.5 369.5Q624 369 621.5 369Q619 369 618.5 368.5Q618 368 615 368Q612 368 611.5 367.5Q611 367 604.5 367Q598 367 597.5 367.5Q597 368 594.5 368Q592 368 591.5 368.5Q591 369 589.5 369Q588 369 587.5 369.5Q587 370 586 370Q585 370 582 371.5Q579 373 576 375.5ZM838.5 655.5Q839 656 839 659Q839 662 838 663Q837 664 837 665.5Q837 667 836.5 667.5Q836 668 783 668Q730 668 729.5 668.5Q729 669 722.5 669Q716 669 715 668Q714 667 714 665.5Q714 664 715 663Q716 662 716 661Q716 660 715.5 659.5Q715 659 715 656.5Q715 654 715.5 653.5Q716 653 716 652Q716 651 716.5 650.5Q717 650 717.5 647.5Q718 645 720.5 641.5Q723 638 723 637.5Q723 637 727.5 632.5Q732 628 739 624.5Q746 621 747.5 621Q749 621 749.5 620.5Q750 620 752 620Q754 620 754.5 619.5Q755 619 760 619Q765 619 765.5 619.5Q766 620 768.5 620Q771 620 771.5 620.5Q772 621 773.5 621Q775 621 775.5 621.5Q776 622 777 622Q778 622 785 625.5Q792 629 793.5 630.5Q795 632 795.5 632Q796 632 800.5 636.5Q805 641 804.5 639.5Q804 638 801 635Q798 632 798 631.5Q798 631 799 630.5Q800 630 799.5 629.5Q799 629 796.5 629Q794 629 790.5 626Q787 623 787 622.5Q787 622 789.5 619.5Q792 617 793 617Q794 617 794.5 616.5Q795 616 796.5 616Q798 616 798.5 615.5Q799 615 805 615Q811 615 811.5 615.5Q812 616 814 616Q816 616 816.5 616.5Q817 617 819.5 617.5Q822 618 825 620.5Q828 623 828.5 624Q829 625 829 627.5Q829 630 828.5 631Q828 632 827 633Q826 634 825 634Q824 634 824 634.5Q824 635 825 635.5Q826 636 830.5 640.5Q835 645 836 647Q837 649 837 650Q837 651 837.5 651.5Q838 652 838 653.5Q838 655 838.5 655.5ZM900 578.5Q900 578 900.5 577.5Q901 577 902 578Q903 579 903 579.5Q903 580 902.5 580.5Q902 581 901 580Q900 579 900 578.5ZM899.5 577.5Q899 577 899.5 576.5Q900 576 900.5 576.5Q901 577 900.5 577.5Q900 578 899.5 577.5ZM892.5 570.5Q886 564 887 563.5Q888 563 894 569Q900 575 900 575.5Q900 576 899.5 576.5Q899 577 892.5 570.5ZM799 497Q799 494 800 493.5Q801 493 803 495Q805 497 805 497.5Q805 498 805.5 497.5Q806 497 807.5 497Q809 497 809.5 497.5Q810 498 810.5 497.5Q811 497 812 497Q813 497 813.5 498Q814 499 815 499Q816 499 817 500Q818 501 818.5 500.5Q819 500 820.5 501Q822 502 822.5 501.5Q823 501 824 501Q825 501 825.5 501.5Q826 502 827.5 501.5Q829 501 829.5 501.5Q830 502 831.5 501Q833 500 835.5 499.5Q838 499 840 498Q842 497 843 496Q844 495 846.5 495Q849 495 850.5 496Q852 497 853 496.5Q854 496 855.5 498Q857 500 857 502.5Q857 505 857.5 505.5Q858 506 858 508Q858 510 859 510.5Q860 511 863 514Q866 517 867 519Q868 521 868 522.5Q868 524 868.5 524.5Q869 525 869 527.5Q869 530 868.5 530.5Q868 531 868 533Q868 535 866.5 538Q865 541 863.5 542.5Q862 544 861.5 544Q861 544 860 543Q859 542 856.5 542Q854 542 851 544.5Q848 547 847.5 548Q847 549 847 552Q847 555 846.5 555.5Q846 556 844.5 556Q843 556 842.5 556.5Q842 557 840.5 557Q839 557 838.5 557.5Q838 558 830.5 558Q823 558 822.5 557.5Q822 557 820 557Q818 557 817.5 556.5Q817 556 814.5 555.5Q812 555 808 553Q804 551 800 547.5Q796 544 796 543.5Q796 543 795 542Q794 541 792.5 538Q791 535 791 533.5Q791 532 790.5 531.5Q790 531 790 527.5Q790 524 790.5 523.5Q791 523 791 521.5Q791 520 792 518Q793 516 794 515Q795 514 795 513.5Q795 513 796.5 511.5Q798 510 798 505.5Q798 501 798.5 500.5Q799 500 799 497ZM795.5 480.5Q797 482 797 482.5Q797 483 793.5 486.5Q790 490 790 490.5Q790 491 788.5 492.5Q787 494 787 494.5Q787 495 786 496Q785 497 784 499Q783 501 781 503Q779 505 779 505.5Q779 506 777 508Q775 510 775 510.5Q775 511 771 515Q767 519 766.5 519Q766 519 763 521.5Q760 524 757 525.5Q754 527 753 527Q752 527 751.5 527.5Q751 528 749.5 528Q748 528 747.5 528.5Q747 529 743 529Q739 529 738.5 528.5Q738 528 736.5 528Q735 528 734.5 527.5Q734 527 732.5 527Q731 527 730.5 526.5Q730 526 728.5 526Q727 526 726.5 525.5Q726 525 724 525Q722 525 722.5 525.5Q723 526 724 526Q725 526 726 527Q727 528 727 528.5Q727 529 721.5 533Q716 537 714 538Q712 539 711 539Q710 539 709.5 539.5Q709 540 707.5 540Q706 540 705.5 540.5Q705 541 703 541Q701 541 700.5 540.5Q700 540 698.5 540Q697 540 694 538.5Q691 537 686 531.5Q681 526 680.5 524.5Q680 523 679 522Q678 521 677 518.5Q676 516 674.5 514.5Q673 513 673 512.5Q673 512 671 510Q669 508 668.5 508Q668 508 664.5 505.5Q661 503 660 503Q659 503 658.5 502.5Q658 502 655 502Q652 502 651.5 502.5Q651 503 653.5 503Q656 503 656.5 503.5Q657 504 658.5 504Q660 504 661 505Q662 506 661 507Q660 508 659 508Q658 508 656.5 509Q655 510 654 510Q653 510 650.5 511.5Q648 513 647 512.5Q646 512 646 509.5Q646 507 647.5 505Q649 503 648.5 502Q648 501 653 496Q658 491 658.5 491Q659 491 660 490Q661 489 662.5 489Q664 489 664.5 488.5Q665 488 667.5 488Q670 488 670 486.5Q670 485 670.5 484.5Q671 484 672.5 484Q674 484 676 483Q678 482 680.5 482Q683 482 683.5 481.5Q684 481 689 481Q694 481 694.5 481.5Q695 482 698 482Q701 482 701.5 482.5Q702 483 703.5 483Q705 483 705.5 483.5Q706 484 708.5 484Q711 484 711.5 484.5Q712 485 714 485Q716 485 716.5 485.5Q717 486 721.5 486Q726 486 726.5 486.5Q727 487 730.5 487Q734 487 734.5 486.5Q735 486 741 486Q747 486 747.5 485.5Q748 485 752.5 484.5Q757 484 757.5 483.5Q758 483 759.5 483Q761 483 763 482Q765 481 766.5 481Q768 481 768.5 480.5Q769 480 771.5 479.5Q774 479 778 477Q782 475 785.5 475Q789 475 789.5 474.5Q790 474 790.5 474Q791 474 792 475Q793 476 793.5 477.5Q794 479 795.5 480.5ZM988 461Q990 461 990.5 461.5Q991 462 992 462Q993 462 996 465Q999 468 999.5 469Q1000 470 1000 473.5Q1000 477 999.5 477.5Q999 478 999 479Q999 480 998 482Q997 484 995.5 485.5Q994 487 994 487.5Q994 488 991 491Q988 494 987.5 494Q987 494 985 496Q983 498 983 498.5Q983 499 983.5 499Q984 499 985 498Q986 497 987.5 497Q989 497 989.5 496.5Q990 496 991.5 496Q993 496 993.5 495.5Q994 495 996.5 495Q999 495 999.5 494.5Q1000 494 1010 494Q1020 494 1020.5 494.5Q1021 495 1022.5 495Q1024 495 1027 496.5Q1030 498 1032.5 500.5Q1035 503 1035.5 504Q1036 505 1036 507.5Q1036 510 1033 513Q1030 516 1029 516.5Q1028 517 1026.5 517Q1025 517 1024.5 517.5Q1024 518 1016 518Q1008 518 1007.5 517.5Q1007 517 1005.5 517Q1004 517 1001.5 515Q999 513 1000 514Q1001 515 1001 516Q1001 517 1002.5 519.5Q1004 522 1004 525Q1004 528 1003 530Q1002 532 998.5 534.5Q995 537 995.5 537.5Q996 538 996 539.5Q996 541 995 543Q994 545 992.5 546.5Q991 548 990 548.5Q989 549 988 549Q987 549 986.5 549.5Q986 550 983 550Q980 550 979.5 549.5Q979 549 977.5 549Q976 549 975 548.5Q974 548 972 546Q970 544 971 543Q972 542 973 543Q974 544 974.5 543.5Q975 543 976 543.5Q977 544 977 543.5Q977 543 976 543Q975 543 974 542.5Q973 542 971 540Q969 538 968.5 537Q968 536 968 534.5Q968 533 969 531.5Q970 530 969.5 530Q969 530 968 531.5Q967 533 967 535.5Q967 538 968 539Q969 540 968.5 541Q968 542 966.5 542Q965 542 964.5 541.5Q964 541 963 541Q962 541 961 540.5Q960 540 957 537Q954 534 953.5 534Q953 534 954 535Q955 536 955 536.5Q955 537 954 538Q953 539 950.5 539Q948 539 947 538.5Q946 538 942.5 534.5Q939 531 938.5 530Q938 529 938 528Q938 527 937.5 526.5Q937 526 937 524Q937 522 936.5 521.5Q936 521 936 517.5Q936 514 936.5 513.5Q937 513 937 511Q937 509 937.5 508.5Q938 508 938 507Q938 506 939 504Q940 502 941.5 500.5Q943 499 943.5 499Q944 499 945 498Q946 497 948.5 497Q951 497 952 498Q953 499 952.5 500Q952 501 955.5 497Q959 493 962 491.5Q965 490 970.5 479Q976 468 979.5 465Q983 462 984 462Q985 462 985.5 461.5Q986 461 988 461ZM848 412Q848 411 849.5 409Q851 407 851 406.5Q851 406 854 403Q857 400 858.5 399.5Q860 399 860.5 399.5Q861 400 861.5 404.5Q862 409 863 411Q864 413 865 414Q866 415 866 415.5Q866 416 868 418Q870 420 874 422Q878 424 880 424Q882 424 882.5 424.5Q883 425 885.5 425Q888 425 888.5 424.5Q889 424 891 424Q893 424 893.5 424.5Q894 425 892.5 426.5Q891 428 890.5 428Q890 428 889 429Q888 430 885 431.5Q882 433 880.5 433Q879 433 878.5 433.5Q878 434 872 434Q866 434 863 432.5Q860 431 858 429Q856 427 856 426.5Q856 426 854.5 424.5Q853 423 850.5 418Q848 413 848 412ZM823.5 389Q825 389 826 390Q827 391 827 391.5Q827 392 826 393Q825 394 823.5 394.5Q822 395 821 394Q820 393 820 392Q820 391 821 390Q822 389 823.5 389ZM892 370.5Q893 370 896 370Q899 370 900 370.5Q901 371 903 373Q905 375 905.5 376Q906 377 906 378Q906 379 906.5 379.5Q907 380 906.5 382.5Q906 385 903.5 387.5Q901 390 900 390.5Q899 391 897 391Q895 391 894.5 390.5Q894 390 893 390Q892 390 889.5 387.5Q887 385 886.5 384Q886 383 886 380Q886 377 886.5 376Q887 375 889 373Q891 371 892 370.5ZM655 337Q657 338 660.5 341.5Q664 345 664.5 346.5Q665 348 666.5 350Q668 352 668 353Q668 354 669 355.5Q670 357 670 358.5Q670 360 671 362Q672 364 672 365.5Q672 367 672.5 367.5Q673 368 673 369.5Q673 371 673.5 372Q674 373 679 377.5Q684 382 684 382.5Q684 383 685 384Q686 385 687.5 388Q689 391 689 392Q689 393 689.5 393.5Q690 394 690 401.5Q690 409 689.5 409.5Q689 410 689 411Q689 412 688 414Q687 416 688.5 414.5Q690 413 690.5 412Q691 411 691 409Q691 407 692 406Q693 405 694 405Q695 405 697 407Q699 409 699.5 410Q700 411 700 412Q700 413 700.5 413.5Q701 414 701 417Q701 420 700.5 420.5Q700 421 700 422.5Q700 424 698.5 427Q697 430 693.5 433.5Q690 437 687 438.5Q684 440 680.5 440Q677 440 675.5 439Q674 438 674 437Q674 436 675.5 434.5Q677 433 677 432Q677 431 675.5 431.5Q674 432 672.5 433.5Q671 435 669 436Q667 437 666 437Q665 437 664.5 437.5Q664 438 662.5 438Q661 438 660.5 438.5Q660 439 655 439Q650 439 649.5 438.5Q649 438 647.5 438Q646 438 644 437Q642 436 639.5 434Q637 432 637 431Q637 430 638 429Q639 428 639 427.5Q639 427 640.5 426Q642 425 642 424Q642 423 641.5 423Q641 423 634 429.5Q627 436 626.5 436Q626 436 621 440Q616 444 613 445.5Q610 447 609 447Q608 447 607.5 447.5Q607 448 605.5 448Q604 448 603.5 448.5Q603 449 598.5 449Q594 449 591 447.5Q588 446 586.5 444.5Q585 443 584.5 442Q584 441 584 440Q584 439 583.5 438.5Q583 438 583 436Q583 434 583.5 433.5Q584 433 584 432Q584 431 585 429Q586 427 587 426Q588 425 588 424.5Q588 424 591 421Q594 418 594.5 418Q595 418 596.5 416.5Q598 415 598.5 415Q599 415 601.5 413Q604 411 608 409Q612 407 613 407Q614 407 616.5 405.5Q619 404 620 404Q621 404 621.5 403.5Q622 403 624.5 402.5Q627 402 627 401.5Q627 401 625 401Q623 401 622.5 401.5Q622 402 618.5 402Q615 402 614.5 402.5Q614 403 601.5 403Q589 403 588.5 402.5Q588 402 585.5 401.5Q583 401 581 400Q579 399 576 396Q573 393 572.5 392Q572 391 572 387.5Q572 384 572.5 383Q573 382 576 379Q579 376 579.5 376Q580 376 581 375Q582 374 584 373Q586 372 587 372Q588 372 588.5 371.5Q589 371 590.5 371Q592 371 592.5 370.5Q593 370 596.5 370Q600 370 600.5 369.5Q601 369 605.5 369Q610 369 610.5 369.5Q611 370 614.5 370Q618 370 618.5 370.5Q619 371 621.5 371Q624 371 624.5 371.5Q625 372 626.5 372Q628 372 630 373Q632 374 633.5 374Q635 374 635.5 374.5Q636 375 637 375Q638 375 639.5 376Q641 377 642 377Q643 377 644 378Q645 379 646 379Q647 379 648.5 378Q650 377 644 370.5Q638 364 638 363.5Q638 363 636 360.5Q634 358 634 357Q634 356 633.5 355.5Q633 355 633 350.5Q633 346 634 344Q635 342 637 340Q639 338 641 337Q643 336 644 336Q645 336 645.5 335.5Q646 335 648 335Q650 335 650.5 335.5Q651 336 652 336Q653 336 655 337ZM912 354Q916 356 917.5 357.5Q919 359 919.5 359Q920 359 924 363Q928 367 928 367.5Q928 368 929.5 369.5Q931 371 933.5 376Q936 381 936 382Q936 383 937 385Q938 387 938 389Q938 391 938.5 391.5Q939 392 939 397Q939 402 938.5 402.5Q938 403 938 405Q938 407 937.5 407.5Q937 408 937 409.5Q937 411 936.5 411.5Q936 412 935.5 414.5Q935 417 934 419Q933 421 932 422Q931 423 931 423.5Q931 424 930 424.5Q929 425 929 425.5Q929 426 928 426.5Q927 427 926.5 428.5Q926 430 924.5 431.5Q923 433 921.5 433.5Q920 434 918.5 436Q917 438 911.5 441Q906 444 904.5 444Q903 444 902.5 444.5Q902 445 900 445Q898 445 897.5 444.5Q897 444 899 442Q901 440 907 437Q913 434 916.5 430.5Q920 427 920 426.5Q920 426 922 423.5Q924 421 924 420Q924 419 925.5 416.5Q927 414 927 412Q927 410 927.5 409.5Q928 409 928 407Q928 405 928.5 404.5Q929 404 929 399.5Q929 395 928.5 394.5Q928 394 928 391.5Q928 389 927.5 388.5Q927 388 927 386.5Q927 385 925 381.5Q923 378 923 377Q923 376 921.5 374.5Q920 373 920 372.5Q920 372 916 368Q912 364 911.5 364Q911 364 908.5 362Q906 360 905 359.5Q904 359 903 359Q902 359 900.5 358Q899 357 898 357Q897 357 896.5 356.5Q896 356 894 356Q892 356 891.5 355.5Q891 355 892 354Q893 353 894.5 353Q896 353 896.5 353.5Q897 354 899 354Q901 354 901 353.5Q901 353 900 353Q899 353 898.5 352.5Q898 352 897 352.5Q896 353 895.5 352.5Q895 352 891.5 352Q888 352 887.5 352.5Q887 353 884 353Q881 353 879 354Q877 355 875.5 355Q874 355 870 357Q866 359 865 360Q864 361 863.5 361Q863 361 859 365Q855 369 855 369.5Q855 370 854 371Q853 372 853 372.5Q853 373 852 374Q851 375 850 377Q849 379 849 380Q849 381 848.5 381.5Q848 382 848 383Q848 384 847 386Q846 388 846 390Q846 392 845.5 392.5Q845 393 845 399.5Q845 406 845.5 406.5Q846 407 846 409Q846 411 846.5 411.5Q847 412 847 413Q847 414 848 415.5Q849 417 849 418Q849 419 849.5 420Q850 421 851 422Q852 423 853 425Q854 427 857 430Q860 433 860.5 433Q861 433 862.5 434.5Q864 436 865.5 436.5Q867 437 869 438.5Q871 440 872 440Q873 440 873.5 440.5Q874 441 876.5 441.5Q879 442 880 443Q881 444 880.5 444.5Q880 445 878 445Q876 445 875.5 444.5Q875 444 874 444Q873 444 872.5 443.5Q872 443 869.5 442.5Q867 442 866 441Q865 440 863.5 439.5Q862 439 863 440Q864 441 865 441Q866 441 866.5 441.5Q867 442 866.5 443Q866 444 864.5 444Q863 444 862.5 443.5Q862 443 859.5 442.5Q857 442 855.5 441Q854 440 853 440Q852 440 850 438.5Q848 437 847.5 437Q847 437 841 431Q835 425 834 422.5Q833 420 832 419Q831 418 831 417Q831 416 830 414.5Q829 413 829 411Q829 409 828.5 408.5Q828 408 828 399.5Q828 391 828.5 390.5Q829 390 829 388.5Q829 387 829.5 386.5Q830 386 830.5 383.5Q831 381 832 379.5Q833 378 833 376.5Q833 375 832 374.5Q831 374 830 374Q829 374 828 373Q827 372 828 371Q829 370 830 370.5Q831 371 832 371Q833 371 833.5 371.5Q834 372 835 372Q836 372 836.5 371Q837 370 841 366Q845 362 845.5 362Q846 362 847.5 360.5Q849 359 854 356.5Q859 354 860.5 354Q862 354 863 353.5Q864 353 864 352.5Q864 352 860.5 352Q857 352 856.5 352.5Q856 353 854 353Q852 353 851.5 353.5Q851 354 848.5 354.5Q846 355 843 356.5Q840 358 836.5 361Q833 364 832.5 364Q832 364 828.5 368.5Q825 373 822.5 378Q820 383 820 384.5Q820 386 819.5 386.5Q819 387 819 388.5Q819 390 818.5 390.5Q818 391 818 397.5Q818 404 818.5 404.5Q819 405 819 407Q819 409 820.5 412Q822 415 822 416.5Q822 418 823 418.5Q824 419 825.5 422Q827 425 827.5 425Q828 425 828.5 426Q829 427 832.5 430Q836 433 836.5 433Q837 433 839 434.5Q841 436 842 436Q843 436 843.5 437Q844 438 844.5 437.5Q845 437 845.5 438Q846 439 846.5 438.5Q847 438 847.5 439Q848 440 848.5 439.5Q849 439 850 440Q851 441 853 442Q855 443 856 443Q857 443 857.5 443.5Q858 444 859 444Q860 444 862 445Q864 446 865.5 446Q867 446 867.5 446.5Q868 447 870 447Q872 447 872.5 447.5Q873 448 876 448Q879 448 879.5 448.5Q880 449 883 449Q886 449 886.5 448.5Q887 448 888 448Q889 448 889.5 448.5Q890 449 892 449Q894 449 895.5 448Q897 447 898 447Q899 447 900 447.5Q901 448 902.5 447Q904 446 905 446Q906 446 909 444.5Q912 443 913 443Q914 443 915 441.5Q916 440 916.5 440.5Q917 441 917.5 440Q918 439 919 439Q920 439 920.5 438Q921 437 922.5 435.5Q924 434 924.5 434Q925 434 925.5 433Q926 432 928.5 429.5Q931 427 931.5 425.5Q932 424 933 423Q934 422 935.5 419Q937 416 937 415Q937 414 938 412Q939 410 939 408.5Q939 407 940 406.5Q941 406 942.5 407.5Q944 409 945.5 412Q947 415 947 416Q947 417 948 419Q949 421 949 423Q949 425 949.5 425.5Q950 426 950 435Q950 444 949.5 444.5Q949 445 949 447Q949 449 948.5 449.5Q948 450 948 451Q948 452 947 453.5Q946 455 946 456Q946 457 944 461Q942 465 940.5 466.5Q939 468 939 468.5Q939 469 933 475Q927 481 926.5 481Q926 481 924.5 482.5Q923 484 918 486.5Q913 489 912 489Q911 489 909 490Q907 491 904.5 491Q902 491 901.5 491.5Q901 492 893 492Q885 492 884.5 491.5Q884 491 882.5 491Q881 491 880.5 490.5Q880 490 878.5 490Q877 490 876.5 489.5Q876 489 873.5 488.5Q871 488 868.5 486Q866 484 859.5 484Q853 484 853 484.5Q853 485 856.5 485Q860 485 862 486.5Q864 488 864 488.5Q864 489 863 489.5Q862 490 862.5 491Q863 492 863 493Q863 494 861.5 495Q860 496 857.5 496Q855 496 854.5 495.5Q854 495 852.5 495Q851 495 850.5 494.5Q850 494 849 494Q848 494 846 493Q844 492 842.5 492Q841 492 840 491.5Q839 491 838.5 490Q838 489 834.5 489Q831 489 831 489.5Q831 490 832 490.5Q833 491 836.5 491.5Q840 492 841 493Q842 494 842 494.5Q842 495 840.5 496Q839 497 838 497Q837 497 834 498.5Q831 500 826.5 500Q822 500 821.5 499.5Q821 499 819.5 499Q818 499 816 498Q814 497 812.5 495.5Q811 494 810.5 494Q810 494 804.5 488.5Q799 483 799 482.5Q799 482 796.5 479Q794 476 794 474.5Q794 473 794.5 472.5Q795 472 794 471Q793 470 791 470Q789 470 787.5 469Q786 468 786 467Q786 466 787.5 464.5Q789 463 790 463Q791 463 791.5 463.5Q792 464 794 464Q796 464 796.5 464.5Q797 465 798.5 465Q800 465 800.5 465.5Q801 466 802.5 466Q804 466 804.5 466.5Q805 467 806 467Q807 467 808 467.5Q809 468 814 472.5Q819 477 819.5 477Q820 477 822.5 479.5Q825 482 826 482.5Q827 483 827 482Q827 481 828 480.5Q829 480 829.5 480.5Q830 481 831 481Q832 481 834 482Q836 483 837.5 483Q839 483 841.5 485Q844 487 845 486.5Q846 486 847 486Q848 486 849 485Q850 484 849.5 483.5Q849 483 843.5 482.5Q838 482 837.5 481.5Q837 481 836 481Q835 481 834.5 480.5Q834 480 832.5 480Q831 480 829.5 479Q828 478 825.5 477.5Q823 477 821 476Q819 475 815.5 471.5Q812 468 811 467.5Q810 467 809 467Q808 467 807.5 466.5Q807 466 806 466Q805 466 804.5 465.5Q804 465 803 465Q802 465 801.5 464.5Q801 464 799.5 464Q798 464 797 463Q796 462 796 461.5Q796 461 795 460.5Q794 460 792 460Q790 460 789.5 460.5Q789 461 780.5 461Q772 461 771.5 460.5Q771 460 769.5 460Q768 460 767.5 459.5Q767 459 765.5 459Q764 459 762.5 458Q761 457 760 457Q759 457 757 456Q755 455 752.5 453Q750 451 749.5 451Q749 451 744.5 446.5Q740 442 740 441.5Q740 441 739 440Q738 439 736.5 436Q735 433 735 432Q735 431 734 429Q733 427 733 421Q733 415 733.5 414.5Q734 414 734 412.5Q734 411 735.5 408Q737 405 738 404Q739 403 739 402.5Q739 402 742.5 398.5Q746 395 750 393Q754 391 754 390.5Q754 390 753.5 390Q753 390 751 391Q749 392 747 390Q745 388 745 387Q745 386 744 384.5Q743 383 743 381.5Q743 380 742.5 379.5Q742 379 742 372.5Q742 366 742.5 365.5Q743 365 743.5 362.5Q744 360 745 358Q746 356 747 355Q748 354 748 353.5Q748 353 753 348Q758 343 758.5 343Q759 343 760 342Q761 341 763 340Q765 339 766 339Q767 339 767.5 338.5Q768 338 769.5 338Q771 338 771.5 337.5Q772 337 778.5 337Q785 337 785.5 337.5Q786 338 787.5 338Q789 338 793 340Q797 342 799 344Q801 346 802.5 346Q804 346 804.5 345.5Q805 345 806.5 345.5Q808 346 809 347Q810 348 810 348.5Q810 349 808.5 350.5Q807 352 806.5 353.5Q806 355 810 351.5Q814 348 814.5 348Q815 348 817.5 346Q820 344 824 342Q828 340 829 340Q830 340 831.5 339Q833 338 834 338Q835 338 835.5 337.5Q836 337 837.5 337Q839 337 839.5 336.5Q840 336 841.5 336Q843 336 843.5 335.5Q844 335 847 335Q850 335 850.5 334.5Q851 334 855.5 334Q860 334 860.5 334.5Q861 335 864.5 335Q868 335 868.5 335.5Q869 336 870.5 336Q872 336 872.5 336.5Q873 337 875.5 337.5Q878 338 883 340.5Q888 343 889.5 344.5Q891 346 890.5 347Q890 348 885 348Q880 348 879.5 348.5Q879 349 877.5 349Q876 349 875.5 349.5Q875 350 873 350Q871 350 870.5 350.5Q870 351 868.5 351Q867 351 867 351.5Q867 352 869.5 352Q872 352 872.5 351.5Q873 351 874.5 351Q876 351 876.5 350.5Q877 350 878.5 350Q880 350 880.5 349.5Q881 349 888.5 349Q896 349 896.5 349.5Q897 350 899 350Q901 350 901.5 350.5Q902 351 903.5 351Q905 351 905.5 351.5Q906 352 907 352Q908 352 912 354ZM994.5 298Q996 298 1004 302Q1012 306 1018.5 312.5Q1025 319 1025 319.5Q1025 320 1027 322.5Q1029 325 1031 329Q1033 333 1033 334Q1033 335 1033.5 335.5Q1034 336 1034 337Q1034 338 1035 340Q1036 342 1036 343.5Q1036 345 1036.5 345.5Q1037 346 1037 348.5Q1037 351 1037.5 351.5Q1038 352 1038 358.5Q1038 365 1037.5 365.5Q1037 366 1037 368.5Q1037 371 1036.5 371.5Q1036 372 1036 374Q1036 376 1035.5 376.5Q1035 377 1034.5 379.5Q1034 382 1032.5 384.5Q1031 387 1031 388Q1031 389 1030 390Q1029 391 1028.5 392.5Q1028 394 1025.5 397Q1023 400 1023 400.5Q1023 401 1018 406Q1013 411 1012.5 411Q1012 411 1009.5 413Q1007 415 1003 417Q999 419 998 419Q997 419 995 420Q993 421 991.5 421Q990 421 989.5 421.5Q989 422 986 422Q983 422 982.5 422.5Q982 423 975.5 422.5Q969 422 968.5 421.5Q968 421 966.5 421Q965 421 962 419.5Q959 418 958 418Q957 418 959.5 419.5Q962 421 963 421Q964 421 964.5 421.5Q965 422 966.5 422Q968 422 968.5 423Q969 424 967 425Q965 426 962 426Q959 426 958.5 425.5Q958 425 955.5 425Q953 425 952 424Q951 423 951 422Q951 421 950 419Q949 417 950 416Q951 415 953 416Q955 417 954 416Q953 415 951 414Q949 413 946.5 410.5Q944 408 944 407.5Q944 407 942 404.5Q940 402 940 396Q940 390 939.5 389.5Q939 389 938.5 385.5Q938 382 935 376Q932 370 927 364.5Q922 359 922 354Q922 349 921.5 349Q921 349 921 352Q921 355 920 356Q919 357 916.5 355Q914 353 912 352Q910 351 907.5 350.5Q905 350 904 349Q903 348 903 347Q903 346 904 344Q905 342 905 340.5Q905 339 908.5 332.5Q912 326 917 321Q922 316 922.5 316Q923 316 924.5 314.5Q926 313 927.5 312.5Q929 312 930.5 310.5Q932 309 936 307Q940 305 941 305Q942 305 944 304Q946 303 947 303.5Q948 304 949 304Q950 304 955 301.5Q960 299 961 299Q962 299 964 298Q966 297 968.5 297Q971 297 971.5 296.5Q972 296 979.5 296Q987 296 987.5 296.5Q988 297 990 297Q992 297 992.5 297.5Q993 298 994.5 298ZM888.5 254Q889 254 894.5 259.5Q900 265 902 269Q904 273 905 274Q906 275 906.5 276Q907 277 907 278Q907 279 907.5 279.5Q908 280 908 281Q908 282 908.5 282.5Q909 283 909 284.5Q909 286 909.5 286.5Q910 287 910 289.5Q910 292 910.5 292.5Q911 293 911 297Q911 301 910.5 301.5Q910 302 910 305Q910 308 909.5 308.5Q909 309 909 310.5Q909 312 907.5 315Q906 318 906 319Q906 320 905 322Q904 324 903 325Q902 326 902 326.5Q902 327 900.5 328.5Q899 330 899 330.5Q899 331 894 336Q889 341 885 339Q881 337 880 337Q879 337 877 336Q875 335 873.5 335Q872 335 871.5 334.5Q871 334 869.5 334Q868 334 867.5 333.5Q867 333 863 333Q859 333 858.5 332.5Q858 332 856 332Q854 332 853.5 332.5Q853 333 848.5 333Q844 333 843.5 333.5Q843 334 841 334Q839 334 837 335Q835 336 833.5 336Q832 336 827.5 338.5Q823 341 822 341Q821 341 820 340.5Q819 340 819.5 340.5Q820 341 818.5 342.5Q817 344 816.5 344Q816 344 815 345Q814 346 812 346Q810 346 804 343Q798 340 797 339Q796 338 795 338Q794 338 791.5 335.5Q789 333 788 331Q787 329 787 328Q787 327 786 325.5Q785 324 784.5 321.5Q784 319 783.5 318.5Q783 318 783 316Q783 314 782.5 313.5Q782 313 782 305.5Q782 298 782.5 297.5Q783 297 783.5 293.5Q784 290 787 284Q790 278 791.5 276.5Q793 275 793 274.5Q793 274 798 269Q803 264 803.5 264Q804 264 805.5 262.5Q807 261 807.5 261Q808 261 810.5 259Q813 257 815 256Q817 255 819 255Q821 255 823.5 253Q826 251 831 248.5Q836 246 837.5 246Q839 246 839.5 245.5Q840 245 841.5 245Q843 245 843.5 244.5Q844 244 845.5 244Q847 244 847.5 243.5Q848 243 855.5 243Q863 243 863.5 243.5Q864 244 866 244Q868 244 868.5 244.5Q869 245 870.5 245Q872 245 872.5 245.5Q873 246 874 246Q875 246 880 248.5Q885 251 886.5 252.5Q888 254 888.5 254Z"/></svg>